<?xml version="1.0" encoding="UTF-8" standalone="no"?>
<svg
   xmlns:dc="http://purl.org/dc/elements/1.1/"
   xmlns:cc="http://creativecommons.org/ns#"
   xmlns:rdf="http://www.w3.org/1999/02/22-rdf-syntax-ns#"
   xmlns:svg="http://www.w3.org/2000/svg"
   xmlns="http://www.w3.org/2000/svg"
   xmlns:sodipodi="http://sodipodi.sourceforge.net/DTD/sodipodi-0.dtd"
   xmlns:inkscape="http://www.inkscape.org/namespaces/inkscape"
   version="1.1"
   id="Layer_1"
   x="0px"
   y="0px"
   viewBox="3.7 128.1 348.44843 368.18758"
   width="271.47534"
   height="286.85406"
   enable-background="new 3.7 128.1 515.8 319.4"
   xml:space="preserve"
   sodipodi:docname="UKHealthSecurityAgency.svg"
   inkscape:version="1.0.2 (e86c870879, 2021-01-15, custom)"><metadata
   id="metadata1161"><rdf:RDF><cc:Work
       rdf:about=""><dc:format>image/svg+xml</dc:format><dc:type
         rdf:resource="http://purl.org/dc/dcmitype/StillImage" /><dc:title></dc:title></cc:Work></rdf:RDF></metadata><defs
   id="defs1159"><rect
     x="258.56854"
     y="381.21082"
     width="252.52493"
     height="135.34399"
     id="rect1171" /><rect
     x="44.799999"
     y="273.89999"
     width="323.5498"
     height="285.86368"
     id="rect1165" /></defs><sodipodi:namedview
   pagecolor="#ffffff"
   bordercolor="#666666"
   borderopacity="1"
   objecttolerance="10"
   gridtolerance="10"
   guidetolerance="10"
   inkscape:pageopacity="0"
   inkscape:pageshadow="2"
   inkscape:window-width="1920"
   inkscape:window-height="1017"
   id="namedview1157"
   showgrid="false"
   inkscape:zoom="1.4142136"
   inkscape:cx="187.88218"
   inkscape:cy="74.210079"
   inkscape:window-x="-8"
   inkscape:window-y="204"
   inkscape:window-maximized="1"
   inkscape:current-layer="text1163" />

<rect
   x="3.7"
   y="128.10001"
   fill="#1aac93"
   width="6.9000001"
   height="353.7666"
   id="rect998"
   style="stroke-width:1.08178" />





<g
   id="g3093"
   transform="matrix(1.2700026,0,0,-1.2700026,-350.48962,428.40351)">

	<g
   id="g3551"
   transform="matrix(1.0089141,0,0,1.0089141,362.11571,-731.87265)">

		<g
   id="g3111"
   transform="translate(76.2633,810.1241)">

			<path
   id="path3113"
   d="m -84.3,133.7 c -0.5,-1 -1,-1.6 -0.9,-2.3 0.1,-0.8 0.9,-1.3 1.2,-2.1 0.3,0.9 0.9,1.6 0.8,2.3 0.1,0.7 -0.9,1.6 -1.1,2.1" />

		</g>

		<g
   id="g3115"
   transform="translate(80.777,810.1241)">

			<path
   id="path3117"
   d="m -75.6,133.7 c 0.5,-1 1,-1.6 0.9,-2.3 -0.1,-0.8 -0.9,-1.3 -1.2,-2.1 -0.3,0.9 -0.9,1.6 -0.8,2.3 0,0.7 0.9,1.6 1.1,2.1" />

		</g>

		<g
   id="g3119"
   transform="translate(73.6659,810.3188)">

			<path
   id="path3121"
   d="m -89.3,134.1 c 0.5,0 0.9,0.4 0.9,0.9 0,0.5 -0.4,0.9 -0.9,0.9 -0.5,0 -0.9,-0.4 -0.9,-0.9 0,-0.5 0.4,-0.9 0.9,-0.9" />

		</g>

		<g
   id="g3123"
   transform="translate(73.8695,809.8832)">

			<path
   id="path3125"
   d="m -88.9,133.2 c 0,0.5 -0.4,0.9 -0.9,0.9 -0.5,0 -0.9,-0.4 -0.9,-0.9 0,-0.5 0.4,-0.9 0.9,-0.9 0.5,0.1 0.9,0.4 0.9,0.9" />

		</g>

		<g
   id="g3127"
   transform="translate(74.0184,809.1441)">

			<path
   id="path3129"
   d="m -88.6,131.8 c 0,0.5 -0.4,0.9 -0.9,0.9 -0.5,0 -0.9,-0.4 -0.9,-0.9 0,-0.5 0.4,-0.9 0.9,-0.9 0.5,0 0.9,0.4 0.9,0.9" />

		</g>

		<g
   id="g3131"
   transform="translate(75.3542,811.7728)">

			<path
   id="path3133"
   d="m -86,136.9 c 0.5,0 0.9,0.4 0.9,0.9 0,0.5 -0.4,0.9 -0.9,0.9 -0.5,0 -0.9,-0.4 -0.9,-0.9 0,-0.5 0.4,-0.9 0.9,-0.9" />

		</g>

		<g
   id="g3135"
   transform="translate(74.5958,811.539)">

			<path
   id="path3137"
   d="m -87.5,136.4 c 0.5,0 0.9,0.4 0.9,0.9 0,0.5 -0.4,0.9 -0.9,0.9 -0.5,0 -0.9,-0.4 -0.9,-0.9 0,-0.5 0.4,-0.9 0.9,-0.9" />

		</g>

		<g
   id="g3139"
   transform="translate(73.9997,811.0167)">

			<path
   id="path3141"
   d="m -88.6,135.4 c 0.5,0 0.9,0.4 0.9,0.9 0,0.5 -0.4,0.9 -0.9,0.9 -0.5,0 -0.9,-0.4 -0.9,-0.9 0,-0.5 0.4,-0.9 0.9,-0.9" />

		</g>

		<g
   id="g3143"
   transform="translate(76.1498,811.6996)">

			<path
   id="path3145"
   d="m -84.5,136.7 c 0.5,0 0.9,0.4 0.9,0.9 0,0.5 -0.4,0.9 -0.9,0.9 -0.5,0 -0.9,-0.4 -0.9,-0.9 0,-0.5 0.4,-0.9 0.9,-0.9" />

		</g>

		<g
   id="g3147"
   transform="translate(76.9063,811.4808)">

			<path
   id="path3149"
   d="m -83,136.3 c 0.5,0 0.9,0.4 0.9,0.9 0,0.5 -0.4,0.9 -0.9,0.9 -0.5,0 -0.9,-0.4 -0.9,-0.9 0,-0.5 0.4,-0.9 0.9,-0.9" />

		</g>

		<g
   id="g3151"
   transform="translate(77.618,811.1467)">

			<path
   id="path3153"
   d="m -81.7,135.7 c 0.5,0 0.9,0.4 0.9,0.9 0,0.5 -0.4,0.9 -0.9,0.9 -0.5,0 -0.9,-0.4 -0.9,-0.9 0,-0.5 0.4,-0.9 0.9,-0.9" />

		</g>

		<g
   id="g3155"
   transform="translate(83.0592,810.624)">

			<path
   id="path3157"
   d="m -71.2,134.7 c 0,-0.5 0.4,-0.9 0.9,-0.9 0.5,0 0.9,0.4 0.9,0.9 0,0.5 -0.4,0.9 -0.9,0.9 -0.5,0 -0.9,-0.4 -0.9,-0.9" />

		</g>

		<g
   id="g3159"
   transform="translate(83.4658,810.1884)">

			<path
   id="path3161"
   d="m -70.4,133.8 c -0.5,0 -0.9,-0.4 -0.9,-0.9 0,-0.5 0.4,-0.9 0.9,-0.9 0.5,0 0.9,0.4 0.9,0.9 0,0.5 -0.4,0.9 -0.9,0.9" />

		</g>

		<g
   id="g3163"
   transform="translate(83.3168,809.4493)">

			<path
   id="path3165"
   d="m -70.7,132.4 c -0.5,0 -0.9,-0.4 -0.9,-0.9 0,-0.5 0.4,-0.9 0.9,-0.9 0.5,0 0.9,0.4 0.9,0.9 0,0.5 -0.4,0.9 -0.9,0.9" />

		</g>

		<g
   id="g3167"
   transform="translate(81.6768,811.7728)">

			<path
   id="path3169"
   d="m -73.8,136.9 c 0.5,0 0.9,0.4 0.9,0.9 0,0.5 -0.4,0.9 -0.9,0.9 -0.5,0 -0.9,-0.4 -0.9,-0.9 0,-0.5 0.4,-0.9 0.9,-0.9" />

		</g>

		<g
   id="g3171"
   transform="translate(82.4348,811.539)">

			<path
   id="path3173"
   d="m -72.4,136.4 c 0.5,0 0.9,0.4 0.9,0.9 0,0.5 -0.4,0.9 -0.9,0.9 -0.5,0 -0.9,-0.4 -0.9,-0.9 0,-0.5 0.4,-0.9 0.9,-0.9" />

		</g>

		<g
   id="g3175"
   transform="translate(83.031,811.0167)">

			<path
   id="path3177"
   d="m -71.2,135.4 c 0.5,0 0.9,0.4 0.9,0.9 0,0.5 -0.4,0.9 -0.9,0.9 -0.5,0 -0.9,-0.4 -0.9,-0.9 0,-0.5 0.4,-0.9 0.9,-0.9" />

		</g>

		<g
   id="g3179"
   transform="translate(80.8801,811.6996)">

			<path
   id="path3181"
   d="m -75.4,136.7 c 0.5,0 0.9,0.4 0.9,0.9 0,0.5 -0.4,0.9 -0.9,0.9 -0.5,0 -0.9,-0.4 -0.9,-0.9 0,-0.5 0.4,-0.9 0.9,-0.9" />

		</g>

		<g
   id="g3183"
   transform="translate(80.1244,811.4808)">

			<path
   id="path3185"
   d="m -76.8,136.3 c 0.5,0 0.9,0.4 0.9,0.9 0,0.5 -0.4,0.9 -0.9,0.9 -0.5,0 -0.9,-0.4 -0.9,-0.9 0,-0.5 0.4,-0.9 0.9,-0.9" />

		</g>

		<g
   id="g3187"
   transform="translate(79.1082,811.4523)">

			<path
   id="path3189"
   d="m -78.8,136.3 c 0,-0.5 0.4,-0.9 0.9,-0.9 0.5,0 0.9,0.4 0.9,0.9 0,0.5 -0.4,0.9 -0.9,0.9 -0.5,0 -0.9,-0.4 -0.9,-0.9" />

		</g>

		<g
   id="g3191"
   transform="translate(77.9948,809.8021)">

			<path
   id="path3193"
   d="m -80.9,133.1 h 1 v 3.8 c -0.4,0.1 -0.7,0.2 -1,0.3 z" />

		</g>

		<g
   id="g3195"
   transform="translate(79.0367,811.2139)">

			<path
   id="path3197"
   d="m -78.9,135.8 c -0.3,-0.1 -0.6,-0.3 -1,-0.3 v -3.8 h 1 z" />

		</g>

		<g
   id="g3199"
   transform="translate(78.3197,812.6555)">

			<path
   id="path3201"
   d="m -80.3,138.6 v 2.3 c -1.1,-0.2 -2,-1.1 -2.2,-2.3 z" />

		</g>

		<g
   id="g3203"
   transform="translate(78.7158,812.6555)">

			<path
   id="path3205"
   d="m -79.6,138.6 h 2.2 c -0.2,1.1 -1.1,2 -2.2,2.3 z" />

		</g>

		<g
   id="g3207"
   transform="translate(77.5795,812.2815)">

			<path
   id="path3209"
   d="m -81.7,137.9 c 0.3,-1.3 1.4,-2.2 2.7,-2.2 1.3,0 2.5,0.9 2.7,2.2 z" />

		</g>

		<g
   id="g3211"
   transform="translate(79.0405,813.5522)">

			<path
   id="path3213"
   d="m -78.9,140.3 c -0.6,0.5 -1.1,1.2 -1.2,2 0.7,-0.1 1.5,-0.7 2,-1.3 v 3.1 c -0.5,-0.6 -1.3,-1.2 -2,-1.3 0.1,0.7 0.5,1.4 1.2,2.2 h -3 c 0.6,-0.8 1.1,-1.5 1.2,-2.2 -0.7,0.1 -1.5,0.7 -2,1.3 V 141 c 0.5,0.6 1.3,1.2 2,1.3 -0.1,-0.8 -0.6,-1.5 -1.2,-2 z" />

		</g>

		<g
   id="g3215"
   transform="translate(80.1627,792.6023)">

			<path
   id="path3217"
   d="m -76.8,99.9 c -2.8,0.7 -6.2,1.9 -9.3,3.3 v 0 c 0.1,0.6 -0.1,1.3 -0.6,1.9 -0.5,0.6 -1.1,0.9 -1.8,0.9 -0.3,0 -0.6,-0.1 -0.9,-0.2 -0.5,0.4 -0.9,0.8 -1.3,1.3 -1.2,1.4 -2.1,3 -2.8,4.8 -0.4,1 -0.6,2.1 -0.8,3.2 -0.1,-0.9 -1.2,-2.1 -2.9,-2.1 0,0.2 0,0.6 -0.2,0.7 -0.5,-0.5 -1.2,-1.1 -2.7,-0.5 0.2,-1.2 0.6,-2.5 1,-3.6 0.9,-2.5 2.3,-4.8 4,-6.8 0.6,-0.6 1.2,-1.2 1.8,-1.8 0,-0.1 0,-0.2 0,-0.4 0,-0.7 0.6,-1.7 1.5,-2.2 0.7,-0.4 1.6,-0.3 2.3,0.3 1.4,-0.7 3.1,-1.4 5,-1.9 2.1,-0.6 4.1,-0.9 5.7,-0.9 1.4,0 3.2,0.6 5,1.8 0.7,0.5 1.4,1 1.9,1.4 0.1,0.1 0.1,0.1 0.2,0.2 -1.3,-0.2 -3.3,0.2 -5.1,0.6 m -10.3,4.3 -0.3,0.2 c -0.5,0.4 -1,0.4 -1.5,0 -0.2,-0.2 -0.4,-0.4 -0.6,-0.7 l -0.3,-0.3 0.2,-0.2 c 0.6,-0.5 0.7,-1 0.5,-1.3 -0.1,-0.1 -0.2,-0.2 -0.3,-0.2 -0.3,-0.1 -0.7,0 -1.1,0.3 l -0.2,0.1 -0.1,-0.2 c 0,-0.1 -0.1,-0.1 -0.1,-0.2 0,-0.1 -0.1,-0.1 -0.2,-0.2 -0.2,-0.4 -0.4,-0.8 -0.4,-1 0,-0.1 0,-0.1 0,-0.2 0.1,-0.3 0.3,-0.5 0.6,-0.6 l 0.1,-0.1 c 0.3,-0.2 0.6,-0.4 0.9,-0.5 -0.5,-0.3 -1,-0.3 -1.5,-0.1 -0.8,0.4 -1.3,1.3 -1.3,1.7 0,0.7 0.3,1.5 0.8,2.4 l 0.1,0.1 -0.1,0.1 c -0.2,0.3 -0.3,0.5 -0.4,0.8 0.3,0 0.6,-0.1 0.9,-0.2 h 0.1 l 0.1,0.1 c 0.3,0.4 1.5,1.6 2.6,1.6 0.5,0 1,-0.3 1.4,-0.7 0.3,-0.3 0.5,-0.7 0.5,-1.1 0,0.1 -0.2,0.2 -0.4,0.4 m 1.9,-5.4 c -0.7,0 -1.2,0.5 -1.2,1.2 0,0.7 0.5,1.2 1.2,1.2 0.7,0 1.2,-0.5 1.2,-1.2 0,-0.7 -0.6,-1.2 -1.2,-1.2 m 5.2,-1.6 c -0.6,0 -1.1,0.5 -1.1,1.1 0,0.6 0.5,1.1 1.1,1.1 0.6,0 1.1,-0.5 1.1,-1.1 0,-0.6 -0.5,-1.1 -1.1,-1.1" />

		</g>

		<g
   id="g3219"
   transform="translate(79.5636,789.7679)">

			<path
   id="path3221"
   d="m -77.9,94.5 c -0.2,0 -0.4,0 -0.6,-0.1 v 3.4 c -1.5,0 -3.2,0.3 -4.9,0.7 v -4.1 c -0.2,0.1 -0.4,0.1 -0.6,0.1 -1.2,0 -1.9,-1 -1.9,-1.9 0,-0.9 0.5,-1.7 1,-2.2 0.2,0.5 0.4,0.9 0.7,0.9 0.6,0 0.3,-2.9 2,-3 -0.1,-0.1 -0.1,-0.3 -0.1,-0.5 0,-0.7 0.6,-1.3 1.3,-1.3 0.7,0 1.3,0.6 1.3,1.3 0,0.2 0,0.3 -0.1,0.5 1.7,0.1 1.4,3 2,3 0.3,0 0.5,-0.4 0.7,-0.9 0.4,0.5 0.9,1.3 0.9,2.2 0.2,0.9 -0.5,1.9 -1.7,1.9 M -81,87.1 c -0.4,0 -0.7,0.3 -0.7,0.7 0,0.4 0.3,0.7 0.7,0.7 0.4,0 0.7,-0.3 0.7,-0.7 0.1,-0.3 -0.2,-0.7 -0.7,-0.7 m 4,4.3 c -0.2,0.4 -0.5,0.6 -0.8,0.6 -1.2,0 -0.7,-3 -2.1,-3 -0.6,0 -0.9,0.4 -0.9,0.8 0,0.4 0.3,0.6 0.3,0.9 0,0.3 -0.3,0.5 -0.6,0.5 -0.3,0 -0.6,-0.1 -0.6,-0.5 0,-0.3 0.3,-0.5 0.3,-0.9 0,-0.4 -0.3,-0.8 -0.9,-0.8 -1.4,0 -0.9,3 -2.1,3 -0.3,0 -0.6,-0.2 -0.8,-0.6 -0.2,0.4 -0.4,0.9 -0.4,1.2 0,0.6 0.4,1.3 1.3,1.3 1.5,0 1.2,-2.1 1.9,-2.1 0.3,0 0.6,0.2 0.6,0.5 0,0.6 -1.1,1.2 -1.1,2 0,0.8 0.8,1.6 1.6,2.3 0.9,-0.7 1.6,-1.4 1.6,-2.3 0,-0.9 -1.1,-1.4 -1.1,-2 0,-0.3 0.2,-0.5 0.6,-0.5 0.7,0 0.4,2.1 1.9,2.1 0.9,0 1.3,-0.8 1.3,-1.3 0.4,-0.3 0.3,-0.8 0,-1.2" />

		</g>

		<g
   id="g3223"
   transform="translate(93.0506,788.3863)">

			<path
   id="path3225"
   d="m -51.9,91.8 c -0.1,0.2 -0.3,0.3 -0.4,0.2 -3.9,-1.1 -8.8,2.1 -13.5,5.3 -4,2.6 -7.7,5.1 -10.9,5.1 -1.2,0 -2.2,-0.3 -3.2,-0.7 -1.1,-0.6 -2,-1.6 -2.5,-2.9 -0.5,-1.3 -1.1,-2.2 -1.6,-2.9 -0.5,-0.9 -0.9,-1.5 -0.9,-2.3 0,-0.6 0.3,-1.2 0.8,-1.8 0.5,-0.5 1.1,-0.9 2.1,-1.4 0.2,-0.1 0.4,-0.2 0.6,-0.3 0.8,-0.4 1.3,-0.6 1.4,-1.1 -1.6,-0.7 -3.6,-1.3 -5.9,-1.7 -2.6,-0.5 -5.4,-0.7 -8.4,-0.7 -3,0 -5.8,0.2 -8.4,0.7 -2.3,0.4 -4.3,1 -5.9,1.7 0.1,0.7 0.5,0.9 1.4,1.3 0.2,0.1 0.4,0.2 0.6,0.3 0.8,0.4 1.5,0.8 2,1.3 0.6,0.5 0.8,1 0.8,1.7 0,0.8 -0.4,1.4 -0.9,2.3 -0.5,0.7 -1,1.6 -1.6,2.9 -0.5,1.3 -1.4,2.3 -2.5,2.9 -0.9,0.5 -2,0.7 -3.1,0.7 -3.2,0 -7,-2.5 -11,-5.2 -4.7,-3.1 -9.6,-6.4 -13.5,-5.3 -0.2,0.1 -0.4,0 -0.4,-0.2 -0.1,-0.2 0,-0.4 0.2,-0.5 1.2,-0.5 2.3,-1.4 3.3,-2.1 1.4,-1.1 2.8,-2.2 4.2,-2.2 1.4,0 2.9,0.4 4.7,1.4 1.6,0.8 3.2,1.9 4.8,3 3.1,2.1 6.3,4.3 9.4,4.6 -0.3,-0.3 -0.6,-0.6 -0.9,-0.9 -0.9,-0.8 -1.7,-1.5 -1.7,-2.9 0,-1.1 0.4,-1.9 0.9,-3 0.2,-0.3 0.3,-0.7 0.5,-1.1 0.3,-0.8 0.5,-1.4 0.7,-2.2 0.1,-0.4 0.2,-0.8 0.3,-1.2 0.2,-0.7 0.6,-2.1 2.8,-3.2 2.6,-1.3 7.1,-2 13.3,-2 6.2,0 10.7,0.7 13.3,2 2.2,1.1 2.6,2.5 2.8,3.2 0.1,0.5 0.2,0.9 0.3,1.2 0.2,0.8 0.3,1.4 0.7,2.2 0.2,0.6 0.5,1 0.7,1.4 0.5,0.9 0.8,1.6 0.8,2.6 0,1.4 -0.8,2.1 -1.8,3 -0.3,0.3 -0.6,0.6 -1,0.9 3.1,-0.2 6.3,-2.4 9.4,-4.6 1.6,-1.1 3.2,-2.2 4.8,-3 1.8,-1 3.3,-1.4 4.7,-1.4 1.5,0 2.8,1 4.2,2.2 1,0.8 2.1,1.6 3.3,2.1 0.1,0.2 0.2,0.4 0.2,0.6" />

		</g>

		<g
   id="g3227"
   transform="translate(84.9701,799.1515)">

			<path
   id="path3229"
   d="m -67.5,112.6 c -0.4,0.3 -1.1,1 -1.5,1.8 -0.5,1 -2.4,4.8 -2.7,5.3 -0.3,0.4 -0.4,0.8 -0.4,1.1 0,0.4 0.2,0.7 0.4,1 0.2,0.2 0.6,0.6 0.7,0.9 0.1,0.2 0.2,0.3 0.3,0.5 -0.7,1.2 -1.4,2.2 -2.4,3.2 -1.1,1.3 -2.4,2.4 -3.8,3.3 0.7,0.5 1.5,1.2 1.5,2.4 0,0.7 -0.3,1.2 -0.8,1.7 0.8,2.5 2.2,5.6 3.4,6.9 l -2.5,1.1 c 0.7,-1 0.7,-2.2 0.6,-2.9 -0.7,0.5 -1.2,1.1 -1.4,1.9 -0.1,-0.8 -0.5,-2 -0.9,-2.7 0.7,0.3 1.3,0.5 2.1,0.2 -0.4,-0.6 -1.5,-1.5 -3.2,-1.1 -0.9,0.2 -1.8,0.7 -1.8,1.4 0,0.4 0.3,0.9 0.9,0.9 0.6,-0.1 0.6,-0.9 0.4,-1.3 0.7,0.4 1.5,2.5 0.3,2.8 -0.9,0.2 -1.7,-1 -2,-1.9 -0.2,1.1 -0.6,2.2 -1.5,2.2 -1.2,-0.1 -0.8,-2.2 -0.4,-2.8 0.1,0.8 0.5,1.2 0.8,1.1 0.3,0 0.7,-0.2 0.6,-0.9 -0.1,-0.7 -1,-1.1 -2.2,-1.1 -1.1,0 -2.9,0.3 -3.1,2.4 0.7,-0.1 1.8,-0.7 2.2,-1.3 -0.1,1.2 -0.1,2.1 0,3.4 -0.6,-0.8 -1.5,-1.2 -2.2,-1.3 0.2,0.9 1,1.8 1.8,2.4 h -4.6 c 0.9,-0.6 1.6,-1.5 1.8,-2.4 -0.7,0.1 -1.6,0.5 -2.2,1.3 0.1,-1.3 0.1,-2.2 0,-3.4 0.5,0.7 1.5,1.2 2.2,1.3 -0.2,-2.1 -2.1,-2.4 -3.1,-2.4 -1.1,0 -2.1,0.4 -2.2,1.1 -0.1,0.7 0.3,0.9 0.7,0.9 0.3,0 0.8,-0.4 0.8,-1.1 0.4,0.5 0.8,2.7 -0.4,2.8 -0.9,0.1 -1.4,-1 -1.5,-2.2 -0.3,0.9 -1.1,2.2 -2,1.9 -1.1,-0.3 -0.4,-2.4 0.3,-2.8 -0.2,0.4 -0.1,1.2 0.4,1.3 0.6,0.1 0.9,-0.4 0.9,-0.9 0,-0.7 -0.9,-1.2 -1.8,-1.4 -1.7,-0.4 -2.7,0.5 -3.2,1.1 0.8,0.3 1.3,0.2 2.1,-0.2 -0.4,0.7 -0.8,2 -0.9,2.7 -0.2,-0.8 -0.8,-1.5 -1.4,-1.9 -0.1,0.7 -0.1,1.9 0.6,2.9 l -2.5,-1.1 c 1.2,-1.3 2.6,-4.4 3.4,-6.9 -0.5,-0.4 -0.8,-1 -0.8,-1.6 0,-1.2 0.8,-1.9 1.5,-2.4 -1.4,-0.9 -2.7,-2 -3.8,-3.3 -1.7,-1.9 -3.1,-4.2 -4,-6.7 0.4,-0.4 1.9,-2 2.2,-2.5 0.6,-0.8 1,-1.6 1,-2.2 0,-1.1 0.3,-1.6 0.9,-2.4 0.2,-0.2 0.5,-1.1 0.5,-1.7 h 12.6 V 97.2 c -0.5,0 -1,-0.2 -1.4,-0.7 1.5,-0.6 2.8,-1.1 4.2,-1.5 0.1,0.9 0.3,1.4 0.8,2 0,0 -1.8,0.2 -2.8,0.2 v 13.7 h 12.3 c 0,-1.9 -0.4,-3.7 -1,-5.4 -0.6,-1.8 -1.6,-3.4 -2.8,-4.8 -1.2,-1.4 -2.5,-2.5 -4.1,-3.2 -0.2,-0.1 -0.2,-0.3 -0.5,-0.4 -0.2,-0.2 -0.4,-0.6 -0.6,-1.1 -0.2,-0.4 -0.2,-0.7 -0.3,-1.2 0.6,-0.2 0.9,-0.3 1.4,-0.4 4.3,-1.1 5.4,-0.8 5.6,-0.6 v 0 c 1,0.7 1.9,1.6 2.7,2.5 1.7,2 3.1,4.2 4,6.8 1,2.6 1.5,5.4 1.5,8.3 0.3,0.5 0.3,0.6 0.3,1.2 m -19.1,-1 h -12.6 c 0,1.9 0.4,3.8 1,5.6 0.6,1.8 1.6,3.4 2.8,4.8 1.2,1.4 2.6,2.5 4.1,3.2 1.5,0.7 3.1,1.1 4.7,1.2 0,0 0,-14.8 0,-14.8 z m 0.2,21 c -4.2,0 -7.1,-1.2 -8.8,-2.4 -1,0.6 -1.4,1.1 -1.4,1.8 0,2.4 6.7,2.6 10.1,2.6 v 0 0 c 3.4,0 10.1,-0.2 10.1,-2.6 0,-0.7 -0.4,-1.2 -1.4,-1.8 -1.5,1.1 -4.4,2.4 -8.6,2.4 m 0.6,-21 v 14.8 c 1.5,-0.1 3,-0.4 4.4,-1.1 1.5,-0.8 2.9,-1.8 4.1,-3.2 1.2,-1.4 2.1,-3 2.8,-4.8 0.6,-1.8 1,-3.7 1,-5.6 -0.1,-0.1 -12.3,-0.1 -12.3,-0.1 z" />

		</g>

		<g
   id="g3231"
   transform="translate(82.2329,799.6543)">

			<path
   id="path3233"
   d="m -72.8,113.5 c 0.2,-0.1 0.1,-0.5 -0.1,-0.4 -0.3,2.2 -1.1,4.4 -2.4,6.2 v 0 c 0.2,0.1 0.5,0.3 0.5,0.6 -0.4,0 -0.6,-0.1 -0.8,-0.3 -0.1,0.1 -0.2,0.2 -0.3,0.3 -0.8,1 -1.7,1.8 -2.7,2.5 -0.9,0.6 -1.9,1.1 -3,1.4 0,0.2 0.3,0.3 0.5,0.1 0,0.4 -0.3,0.6 -0.5,0.5 -0.1,0 -0.2,-0.1 -0.2,-0.3 -0.1,0.1 -0.3,0.3 -0.6,0.3 0,-0.3 0.1,-0.4 0.2,-0.6 -0.2,0 -0.3,-0.1 -0.3,-0.2 -0.1,-0.2 0,-0.5 0.4,-0.6 -0.2,0.2 -0.1,0.5 0.1,0.4 v -4.8 c -0.2,0.1 -0.5,0 -0.8,-0.2 0.3,-0.3 0.6,-0.3 0.8,-0.2 V 113 c -0.3,0 -0.3,0.3 -0.1,0.4 -0.4,0 -0.6,-0.4 -0.5,-0.5 0.1,-0.1 0.2,-0.2 0.4,-0.2 -0.1,-0.1 -0.2,-0.3 -0.2,-0.6 0.2,0 0.4,0.1 0.5,0.2 0,-0.2 0.1,-0.3 0.2,-0.4 0.2,-0.1 0.5,0.1 0.5,0.5 -0.1,-0.2 -0.5,-0.1 -0.5,0.1 h 3.6 c -0.1,-0.2 0,-0.5 0.2,-0.8 0.2,0.3 0.3,0.6 0.2,0.8 h 4 c 0,-0.3 -0.3,-0.3 -0.4,-0.1 0,-0.4 0.4,-0.5 0.5,-0.5 0.1,0.1 0.2,0.2 0.2,0.4 0.1,-0.1 0.3,-0.2 0.6,-0.2 0,0.2 -0.1,0.4 -0.2,0.5 0.2,0 0.3,0.1 0.4,0.2 0.4,0.4 0.2,0.7 -0.2,0.7 m -3.4,6.4 c -0.1,-0.1 -0.2,-0.2 -0.1,-0.3 0,-0.1 0.1,-0.2 0.4,-0.2 -0.1,-0.1 -0.2,-0.3 -0.3,-0.5 0.2,0 0.4,0 0.6,0.1 0,-0.2 0,-0.3 0.1,-0.4 0.1,-0.1 0.2,-0.1 0.3,0 0.9,-1.5 1.6,-3.2 1.8,-5 -0.1,0.1 -0.3,0.1 -0.5,0.1 0,-0.3 0.1,-0.4 0.2,-0.6 h -3.1 c 0,0.2 -0.1,0.4 -0.2,0.4 -0.1,0 -0.3,0 -0.4,-0.1 0,0.2 -0.1,0.4 -0.2,0.5 -0.2,-0.2 -0.2,-0.4 -0.2,-0.5 -0.1,0.2 -0.3,0.2 -0.4,0.1 -0.1,0 -0.2,-0.2 -0.2,-0.4 H -81 c 0.1,0.1 0.2,0.3 0.2,0.5 -0.2,0 -0.4,-0.1 -0.5,-0.2 v 4.2 c 0.2,0 0.4,0.1 0.4,0.2 0,0.1 0,0.3 -0.1,0.4 0.2,0 0.4,0.1 0.5,0.2 -0.2,0.2 -0.4,0.2 -0.5,0.2 0.2,0.1 0.2,0.3 0.1,0.4 0,0.1 -0.2,0.2 -0.4,0.2 v 3.6 c 0.1,-0.1 0.3,-0.2 0.5,-0.2 0,0.2 0,0.4 -0.1,0.5 0.8,-0.3 1.6,-0.7 2.4,-1.2 0.7,-0.4 1.5,-1.1 2.3,-2" />

		</g>

		<g
   id="g3235"
   transform="translate(81.4982,800.1064)">

			<path
   id="path3237"
   d="m -74.2,114.4 c 0.2,0.1 0.3,0.2 0.3,0.3 -0.2,-0.1 -0.3,0 -0.3,0 0.1,0.1 0.3,0 0.1,0.2 -0.1,0.2 -0.2,0.2 -0.4,0.1 -0.1,-0.2 -1.1,0 -1.1,0.8 0.1,-0.1 0.2,-0.2 0.3,-0.3 0,0 0.1,0 0.1,-0.1 h 0.1 c 0.1,0 0.2,0 0.3,0 0,0 0,0 0.1,0 v 0 c 0.2,0 0.4,0.2 0.4,0.4 0,0.4 -0.3,0.6 -0.8,0.9 -0.2,0.1 -0.3,0.3 -0.4,0.4 -0.1,0.3 0,0.6 -0.4,1.1 0,0.1 0,0.3 -0.1,0.5 -0.2,-0.3 -0.3,-1 0.2,-1.5 0.4,-0.5 1.3,-0.9 1.2,-1.3 0,-0.1 -0.1,-0.2 -0.2,-0.2 h -0.1 c 0,0 0,0 -0.1,0 -0.1,0 -0.1,0 -0.2,0.1 -0.1,0.1 -0.2,0.1 -0.3,0.2 -0.4,0.3 -0.7,0.8 -0.9,1.1 -0.4,0.5 -0.2,1 -0.2,1.4 0.3,0.4 -0.2,1.2 -0.4,1.4 0,0 0.1,0.2 0,0.4 -0.1,0 -0.2,0 -0.2,0 -0.1,0.1 -0.1,0.2 -0.2,0.2 -0.2,0 -0.2,0.1 -0.2,0.2 -0.1,-0.1 -0.1,-0.2 -0.2,-0.2 -0.1,0 -0.2,0 -0.3,0 -0.1,-0.1 -0.1,-0.1 -0.3,-0.1 -0.2,0 -0.2,-0.1 -0.1,-0.2 0,-0.1 0,-0.2 0.1,-0.2 v 0 l 0.1,-0.2 0.1,0.2 c 0.1,0.1 0.3,0.1 0.3,-0.1 0,-0.1 0,-0.1 -0.1,-0.2 -0.1,0 -0.2,0 -0.4,0 -0.1,0 -0.1,-0.1 -0.1,-0.2 0,-0.1 0.1,-0.1 0.3,-0.1 0.2,0 0.5,0.1 0.5,-0.1 0,-0.4 -0.5,-0.4 -0.6,-0.9 -0.1,0.1 -0.2,0.2 -0.3,0.3 -0.1,0.1 -0.2,0.3 -0.4,0.5 -0.1,0.1 -0.2,0.2 -0.4,0.3 -0.2,0.1 -0.2,0.2 -0.2,0.4 0,0.2 0.1,0.3 0.1,0.4 v 0.1 c 0,0.1 -0.2,0.2 -0.2,0.1 0,0 0.1,-0.1 0.1,-0.2 l -0.1,-0.1 v -0.1 0 c 0,0 0,0 0,-0.1 v 0 c 0,0.1 -0.1,0.3 -0.2,0.3 0,0 0,0 -0.1,0 v 0 c 0,0.1 -0.1,0.2 -0.3,0.1 h 0.1 v -0.1 c 0,-0.1 0.1,-0.2 0.2,-0.2 v 0 0 0 c -0.2,0.1 -0.3,0 -0.3,-0.1 v -0.1 c -0.1,0 -0.1,-0.2 0,-0.2 v 0.1 0 c 0,0 0,0 0.1,-0.1 0,0 0,0 0.1,0 v 0 c 0,0 0,0 0.1,0 v 0 c -0.1,-0.1 -0.1,-0.2 0,-0.3 -0.1,-0.1 -0.3,-0.1 -0.3,0.1 -0.2,-0.3 0.1,-0.5 0.3,-0.4 0,-0.1 0,-0.3 0,-0.3 0,0 0,0.1 0.1,0.1 v 0 c 0,-0.1 0,-0.1 0.1,-0.2 v 0.1 c 0,-0.1 0.1,-0.1 0.1,-0.2 0.1,-0.2 0.3,-0.7 0.9,-0.9 -0.3,-0.2 -0.4,-0.4 -0.6,-0.6 -0.1,-0.1 -0.4,-0.3 -0.5,-0.2 -0.1,0 -0.1,0.1 -0.2,0.2 -0.1,0 -0.1,0.1 -0.2,0 h -0.1 c -0.1,0 -0.2,0 -0.3,-0.1 0.1,0 0.1,0 0.2,0 v -0.1 c 0,-0.1 0,-0.1 0.3,-0.1 v 0 c 0,0 -0.1,-0.1 -0.1,0 -0.1,0 -0.2,0.1 -0.3,0 0,0 0,0 -0.1,-0.1 v 0 c -0.1,0 -0.2,-0.2 -0.1,-0.3 0,0 0,0.1 0.1,0.2 0,0 0,-0.1 0.1,-0.1 0.1,-0.1 0.2,-0.2 0.3,0.1 v 0 c 0,-0.1 -0.1,-0.3 0,-0.3 0,0 0,0 0.1,0 v 0 c 0,-0.1 0.2,-0.2 0.3,-0.1 -0.1,0 -0.1,0.1 -0.2,0.2 h 0.1 c 0.1,0.1 0,0.2 0,0.3 v 0 c 0,-0.1 0.1,-0.2 0.3,-0.1 0.1,0 0.1,0.1 0.1,0.2 0.2,0.1 0.3,0.1 0.5,0.1 0,0.1 0.1,0.2 0.3,0.3 0.2,0.1 0.3,0 0.3,-0.1 0,0.1 0.1,0.2 0.2,0.3 0,-0.8 1,-0.7 1.3,-1.2 -0.3,0.1 -0.7,0.2 -0.8,0.2 -0.3,0 -0.7,-0.3 -0.7,-0.6 0,-0.2 0.2,-0.7 0.4,-0.8 -0.3,-0.1 -0.4,0 -0.7,0 v 0 c -0.2,0 -0.3,0.4 -0.5,0.3 0,0 -0.1,0 -0.1,-0.1 v 0 c -0.1,0 -0.3,-0.1 -0.2,-0.2 0,0 0.1,0.1 0.2,0.1 V 115 c 0,0 0,-0.1 0.1,-0.1 0.1,0 0.1,0 0.1,0 v 0 c 0,-0.1 -0.3,0.1 -0.3,-0.2 0,0 0,-0.1 0.1,-0.1 0,-0.1 0.1,-0.2 0.2,-0.1 l -0.1,0.1 h 0.1 v 0 0 0 c 0,0 0,0 0,-0.1 v -0.1 c 0,-0.1 0.1,-0.2 0.3,-0.1 0,0 -0.1,0 -0.1,0.1 h 0.1 v 0.1 0 h 0.1 v 0 c 0,-0.1 0.1,-0.1 0.2,-0.1 0.1,0 0.1,0.1 0.1,0.1 0,0 0.1,0 0.1,-0.1 0,0.1 0,0.2 0.3,0 l 0.2,0.1 c 0,0 0.2,-0.1 0.3,0 0.1,0.1 0.1,0.1 0.1,0.3 -0.1,0.2 -0.2,0.2 -0.2,0.4 -0.1,0.4 0.5,0.6 0.8,0.5 0.1,-0.2 0.4,-0.9 1,-1.1 0.4,-0.1 0.5,0.3 0.6,0.2 0,0 0,0 0.1,-0.1 0,-0.2 0,-0.3 0,-0.4 0,-0.1 -0.2,0 -0.4,0 -0.1,0 -0.1,0 -0.1,-0.1 -0.1,0 -0.2,-0.1 -0.2,-0.2 0,0 0.1,0.1 0.2,0.1 0,0 0,0 0,-0.1 0,-0.1 0.2,-0.2 0.3,-0.1 0,0 0.1,0 0,0 -0.1,-0.1 -0.2,-0.2 -0.1,-0.3 0,0 0,0 0.1,0 0,-0.1 0.1,-0.2 0.1,-0.2 0,0 0,0.1 0,0.2 h 0.1 c 0.1,0 0.1,0.2 0.2,0.2 v 0 c 0,-0.1 -0.1,-0.2 0,-0.3 0,0 0,0 0.1,0 0,-0.1 0.1,-0.1 0.3,-0.1 0,0 -0.1,0 -0.1,0.1 l 0.1,0.1 c 0.1,0.2 -0.1,0.2 -0.1,0.3 0,0.1 0.2,0 0.2,0.3 v 0 c 0.1,0.1 0.2,0.1 0.3,0.2 0.2,-0.1 0,0 0,0 z" />

		</g>

		<g
   id="g3239"
   transform="translate(77.9625,797.7405)">

			<path
   id="path3241"
   d="m -81,109.8 h -0.2 v 0.2 c 0,0.7 -0.4,1.3 -1.2,1.3 -0.7,0 -2.1,-0.9 -4,-0.9 -0.8,0 -1.8,0.4 -2.4,0.7 l -0.2,-0.6 c 0,0 0,0 0,0.1 0,0.3 -0.2,0.5 -0.5,0.5 -0.3,0 -0.5,-0.2 -0.5,-0.5 0,-0.3 0.2,-0.5 0.5,-0.5 0.1,0 0.3,0.1 0.4,0.2 l -0.2,-0.6 c 0.1,0 0.2,-0.1 0.2,-0.1 -0.3,-2.9 1.9,-6.6 5.6,-7.7 0.6,0.1 1.1,0.1 1.1,-0.5 0,-0.4 -0.2,-0.5 -0.5,-0.5 -0.2,0 -0.4,0.1 -0.4,0.3 0,0.3 0.4,0.1 0.5,0.3 0.1,0.2 -0.1,0.3 -0.4,0.3 -0.3,0 -0.7,-0.2 -0.7,-0.6 0,-0.5 0.4,-0.8 0.9,-0.8 0.4,0 1.3,0.2 1.2,1.3 0.2,0 0.4,0 0.5,0.2 v 0.6 h -0.2 l 0.2,6.6 h 0.1 c 0.2,0 0.5,0.1 0.5,0.4 0.1,0.2 -0.1,0.3 -0.3,0.3 m -6.8,-0.5 4.6,-6.6 c -2.5,1 -4.9,3.2 -4.6,6.6 m 4.7,-5.9 -4.2,6 c 0.1,0 0.3,0 0.4,0 0.2,0 0.4,0 0.6,0 l 3.4,-4.8 c -0.1,-0.5 -0.2,-0.9 -0.2,-1.2 m 0.3,1.9 -3,4.2 c 0.3,0.1 0.6,0.2 0.9,0.3 l 2.2,-3.2 c 0,-0.4 0,-0.9 -0.1,-1.3 m 0.7,4.6 h -0.2 c -0.2,0 -0.4,-0.1 -0.5,-0.3 0,-0.3 0.2,-0.4 0.4,-0.4 h 0.1 c 0,-0.1 0,-0.1 0,-0.2 -0.1,-0.4 -0.2,-1 -0.3,-1.7 l -1.9,2.7 c 0.9,0.3 1.6,0.7 2,0.7 0.4,0 0.5,-0.2 0.4,-0.8" />

		</g>

		<g
   id="g3243"
   transform="translate(77.6883,802.3008)">

			<path
   id="path3245"
   d="m -81.5,118.6 c 0.9,0 1.3,0.3 1.3,0.6 0,1 -2.5,0.4 -2.5,1 0,0.1 0.1,0.2 0.2,0.3 v 0 c 1.2,0.1 1.3,1 2.1,1.1 -1.1,0.2 -1.2,-0.7 -1.7,-0.7 0.2,0.1 0.3,0.4 0.3,0.5 -0.2,-0.3 -0.7,-0.3 -1,-0.6 0,-0.1 -0.1,-0.1 0,-0.2 -0.2,-0.1 -0.3,-0.2 -0.3,-0.4 0,-0.9 2.5,-0.3 2.5,-1 0,-0.2 -0.4,-0.4 -1.1,-0.4 -0.5,0 -0.9,0.4 -1.8,0.1 0,0.2 0.3,0.5 0.2,0.6 0.1,0 0.2,0.1 0.2,0.2 -0.1,0.1 -0.1,0.1 -0.2,0.1 v 0.1 c 0,0 0,0.1 -0.1,0.1 0,0 -0.1,0.1 -0.2,0.1 -0.1,0.1 -0.2,0.1 -0.2,0.1 h -0.1 c -0.1,0 -0.1,0 -0.1,-0.1 0,0 -0.1,0.1 -0.2,0.1 0,-0.1 -0.1,-0.1 0,-0.3 -0.1,0 -0.2,-0.2 -0.3,-0.2 0,-0.1 0.1,-0.1 0.1,-0.1 -0.1,-0.1 -0.1,-0.3 -0.2,-0.3 0,0 0,-0.1 0.1,-0.1 -0.1,-0.2 -0.1,-0.4 -0.1,-0.6 v 0 c -0.1,0.1 -0.1,0.1 -0.2,0.2 -0.1,0.1 -0.1,0.2 -0.1,0.3 0,0.1 0.1,0.2 0.1,0.3 v 0.1 c 0,0.1 -0.1,0.1 -0.2,0.1 l 0.1,-0.1 -0.1,-0.1 c 0,0 -0.1,-0.1 0,-0.1 v 0 c 0,0 0,0 0,-0.1 v 0 c 0,0.1 0,0.2 -0.1,0.2 h -0.1 v 0 c 0,0.1 -0.1,0.2 -0.2,0.1 h 0.1 v -0.1 c 0,-0.1 0,-0.1 0.2,-0.1 v 0 0 0 c -0.2,0.1 -0.3,0 -0.3,-0.1 0,0 0,0 0,-0.1 -0.1,0 -0.1,-0.1 0,-0.2 0,0 0,0.1 0.1,0.1 v 0 0 c 0,0 0,0 0.1,0 v 0 0 0 c -0.1,-0.1 -0.1,-0.2 0,-0.2 v 0 c 0,-0.2 -0.3,-0.2 -0.3,0 -0.2,-0.2 0.1,-0.4 0.3,-0.3 v 0 c 0,0 0,-0.1 0.1,-0.1 0,0 0,0 0.1,0 v 0 c 0,0 0,-0.1 0.1,-0.1 v 0.1 c 0,0 0.1,-0.2 0.2,-0.3 -0.2,-0.1 -0.5,-0.2 -0.6,-0.2 0,0 -0.3,0 -0.4,0 -0.1,-0.1 -0.5,-0.2 -0.6,-0.1 0,0 0,0.1 -0.1,0.2 l -0.1,0.1 h -0.1 c -0.1,0.1 -0.2,0.1 -0.2,0 0,0 0.1,0 0.1,-0.1 v -0.1 c 0,0 0,-0.1 0.2,-0.2 v 0 h -0.1 c -0.1,0.1 -0.1,0.2 -0.2,0.1 0,0 0,0 -0.1,0 v 0 c -0.1,0 -0.2,-0.1 -0.2,-0.2 0,0 0,0.1 0.1,0.1 v -0.1 c 0,-0.1 0.1,-0.2 0.3,0 v 0 c -0.1,-0.1 -0.2,-0.2 -0.1,-0.3 0,0 0,0 0.1,0 v 0 c 0,-0.1 0.1,-0.2 0.2,-0.2 0,0 -0.1,0.1 -0.1,0.2 h 0.1 c 0.1,0 0.1,0.2 0.1,0.2 v 0 c 0,-0.1 0,-0.2 0.2,-0.2 0.1,0 0.2,0.1 0.2,0.2 v 0 l 0.1,-0.1 c 0,0 0.1,0 0.1,0.1 0,-0.1 0,-0.1 0,-0.2 0,0 0.2,0.1 0.2,0.2 0,0 0,0 0,-0.1 v 0 c 0.1,0 0.1,0 0.3,0 v 0 c 0,-0.1 0,-0.1 0,-0.1 v 0.1 c 0,0 0,-0.1 0.1,-0.2 0,0.3 0.2,0.2 0.4,0.3 v 0 c 0,0 0,-0.1 -0.1,-0.1 0.1,0 0.3,0.1 0.3,0.2 l 0.1,0.1 c 0.1,0 0.2,0 0.2,0.1 0,0 0,-0.1 0,-0.2 0.2,0 0.4,0.2 0.5,0.3 0.5,0.1 -0.3,0.4 0.7,0.4 0.1,0 0.2,0 0.3,0.1 -0.1,-0.1 -0.1,-0.4 0.1,-0.5 0.1,0 0.2,-0.1 0.2,-0.1 v 0 c -0.1,0 -0.2,0 -0.2,-0.1 -0.2,-0.1 -0.2,0.3 -0.5,0.2 0,0 0,0 -0.1,0 -0.1,0 -0.2,-0.1 -0.2,-0.2 0,0 0.1,0.1 0.2,0.1 v 0 c 0,0 0,-0.1 0.1,-0.1 h 0.1 v 0 c 0,-0.1 -0.3,0 -0.2,-0.2 v -0.1 c 0,-0.1 0.1,-0.2 0.2,-0.1 0,0 -0.1,0 -0.1,0.1 0,0 0,0 0.1,0 v 0 0 0 c 0,0 0,0 0,-0.1 v -0.1 c 0,-0.1 0.1,-0.2 0.3,-0.1 0,0 -0.1,0 -0.1,0.1 h 0.1 c 0,0 0,0 0,0.1 v 0 c 0,0 0,0 0.1,0 v 0 c 0,-0.1 0.1,-0.1 0.2,-0.1 0.2,0.1 0,0.2 0.2,0.2 h 0.1 c 0.1,0 0.3,0 0.3,0 0,0.1 0,0.3 -0.1,0.4 -0.1,0 0,0.1 -0.1,0.3 0.1,-0.1 0.3,-0.1 0.5,-0.1 0.3,0 0,0.1 0.2,0.1 0.2,0.1 0.4,0.1 0.4,0 0,0 0.1,0 0.1,-0.1 0,-0.2 0,-0.2 0,-0.3 0,-0.1 -0.2,0 -0.3,0 -0.1,0 -0.1,0 -0.1,0 -0.1,0 -0.2,-0.1 -0.2,-0.2 0,0 0.1,0.1 0.2,0.1 v 0 c 0,-0.1 0.1,-0.2 0.2,-0.1 v 0 c -0.1,-0.1 -0.2,-0.2 -0.1,-0.2 0,0 0,0 0.1,0 0,-0.1 0,-0.2 0.1,-0.2 v 0.1 h 0.1 c 0.1,0 0,0.1 0.1,0.2 v 0 c 0,-0.1 0,-0.2 0,-0.2 0,0 0,0 0.1,0 0,-0.1 0.1,-0.1 0.2,-0.1 0,0 -0.1,0 -0.1,0.1 l 0.1,0.1 c 0,0.2 -0.1,0.2 -0.1,0.3 0,0.1 0.2,0 0.2,0.2 0,0 0,0.1 -0.1,0.1 v 0 0 c 0,0 0.1,0 0.1,0.1 -0.1,0 -0.1,0.1 -0.1,0.2 v 0 c 0,0 0.1,0.1 0.1,0.2 0,-0.1 -0.2,-0.1 -0.2,0 0,0 0,0.1 -0.1,0.1 -0.3,-0.1 -0.4,0.1 -0.8,0.1 -0.1,0 -0.1,0 0,0 m -2.8,1 v 0 0 m 0.7,0.2 c 0,0 0.2,-0.1 0.3,-0.1 -0.1,0 -0.1,-0.1 -0.2,-0.1 -0.1,0 -0.1,0.1 -0.1,0.2 m -0.2,0.1 c 0,-0.1 -0.1,-0.1 -0.2,-0.1 -0.1,0.1 0,0.1 -0.1,0.2 0.1,0 0.3,-0.1 0.3,-0.1 m -0.3,-0.6 c 0,0 0.1,0.1 0,0 0.1,0.1 0.1,0.1 0.2,0.2 0,0.1 0,0.1 -0.1,0.1 0.1,0 0.1,0 0.1,0.1 H -84 c 0,0 0,0 0.1,0.1 0,0 0,0 0.1,0 l 0.2,-0.1 c 0,0 0,0 0,-0.1 v -0.1 c 0,0 0,0.1 -0.1,0.1 0,0 0,0 0,-0.1 -0.1,0 -0.1,0 -0.1,0 v -0.1 -0.1 c 0,-0.1 -0.1,-0.1 -0.3,0 0,-0.2 0,-0.1 0,0" />

		</g>

		<g
   id="g3247"
   transform="translate(78.1122,801.1567)">

			<path
   id="path3249"
   d="m -80.7,116.4 c 0,0.3 -0.3,0.4 -1.2,0.4 -0.9,0 -2.9,-0.3 -2.9,0.2 0,0.2 0.4,0.2 0.8,0.2 0,0 0.1,-0.1 0.2,-0.1 1.1,-0.3 2.5,0.3 3.2,0.1 -0.8,0.6 -1.5,0 -2.3,0.2 0.5,0 0.7,0.1 0.7,0.3 -0.4,-0.3 -1.1,0.1 -1.6,-0.2 0,0 -0.1,0 -0.1,-0.1 -0.6,0 -1.1,0 -1.1,-0.4 0,-0.9 2.4,-0.4 3.1,-0.4 0.7,0 0.9,-0.1 0.9,-0.2 0,-0.2 -0.7,-0.3 -1.1,-0.3 -0.6,0 -2.6,0.3 -3.7,0.1 0.1,0.2 0.3,0.4 0.2,0.6 0.1,0 0.2,0.1 0.2,0.2 -0.1,0.1 -0.1,0.1 -0.2,0.1 0,0.1 0,0.1 -0.1,0.2 0,0 0,0.1 -0.1,0.1 0,0 -0.1,0.1 -0.3,0.2 -0.1,0.1 -0.2,0.1 -0.3,0.1 0,0 -0.1,0 -0.2,0 -0.1,0 -0.1,0 -0.1,-0.1 -0.1,0.1 -0.1,0.1 -0.2,0.1 0,-0.1 -0.1,-0.2 0,-0.3 -0.1,0 -0.2,-0.3 -0.3,-0.2 0,-0.1 0.1,-0.1 0.1,-0.1 -0.1,-0.2 -0.1,-0.3 -0.2,-0.3 0.1,-0.1 0.1,-0.1 0.1,-0.1 0,-0.1 0,-0.2 0,-0.3 l -0.2,0.1 v 0 c 0,0 0,0 -0.1,0 h 0.1 -0.1 c -0.1,0.1 -0.2,0.2 -0.4,0.3 -0.2,0.1 -0.2,0.2 -0.2,0.4 0,0.2 0.1,0.3 0.1,0.4 v 0.1 c 0,0.1 -0.1,0.2 -0.2,0.2 0,0 0.1,-0.1 0.1,-0.2 l -0.1,-0.1 c 0,0 0,-0.1 0,-0.2 v 0 c 0,0 0,0 0,-0.1 v 0 c 0,0.1 -0.1,0.3 -0.2,0.3 h -0.1 v 0 c 0,0.1 -0.1,0.2 -0.3,0.1 h 0.1 v -0.1 c 0,-0.1 0.1,-0.2 0.2,-0.2 v 0 c 0,0 0,0 0,-0.1 v 0 c -0.2,0.1 -0.3,0 -0.3,-0.1 v -0.1 c -0.1,-0.1 -0.1,-0.2 0,-0.2 v 0.1 0 0 h 0.1 v 0 c 0,0 0,0 0.1,0 v 0 c -0.1,-0.1 -0.1,-0.3 0,-0.3 v 0 c 0,-0.2 -0.4,-0.2 -0.3,0 -0.2,-0.3 0.1,-0.5 0.4,-0.4 v 0 c 0,0 0,-0.1 0.1,-0.1 0,0 0,0.1 0.1,0.1 v 0 c 0,-0.1 0,-0.1 0.1,-0.2 v 0.1 c 0,0 0.2,-0.2 0.4,-0.3 0.2,-0.1 0.3,-0.2 0.4,-0.1 0,-0.2 0.1,-0.4 0.1,-0.4 -0.1,0 -0.5,0 -0.6,0 -0.2,-0.1 -0.6,-0.2 -0.7,-0.1 0,0.1 0,0.1 -0.1,0.2 0,0.1 -0.1,0.1 -0.1,0.1 h -0.1 c -0.1,0.1 -0.2,0.1 -0.3,0 0,0 0.1,0 0.2,-0.1 v -0.1 c 0,-0.1 0,-0.1 0.2,-0.2 v 0 h -0.1 c -0.1,0.1 -0.1,0.2 -0.2,0.1 0,0 0,0 -0.1,0 v 0 c -0.1,0 -0.3,-0.1 -0.2,-0.3 l 0.1,0.1 V 115 c 0,-0.1 0.1,-0.2 0.4,-0.1 v 0 c -0.1,-0.1 -0.2,-0.2 -0.1,-0.3 0,0 0,0 0.1,0 v 0 c 0,-0.2 0.1,-0.3 0.2,-0.3 0,0 -0.1,0.1 -0.1,0.2 h 0.1 c 0.1,0.1 0.1,0.2 0.1,0.3 v 0 c 0,-0.1 0,-0.2 0.2,-0.2 0.1,0 0.2,0.1 0.2,0.2 v 0 c 0,0 0.1,-0.1 0.1,-0.2 0,0 0.1,0 0.1,0.1 0,-0.1 0,-0.2 -0.1,-0.3 0.1,0 0.2,0.1 0.2,0.3 0,0 0,-0.1 0.1,-0.1 v 0 c 0,0 0.2,0 0.3,0 v 0 c 0,-0.1 0,-0.1 0,-0.1 0,0 0,0.1 0.1,0.1 0,0 0,-0.1 0.1,-0.2 0,0.4 0.2,0.2 0.5,0.4 v 0 c 0,0 0,-0.1 -0.1,-0.1 0.3,-0.1 0.7,0.3 0.8,0.5 0.1,0 0.2,0 0.3,0 0.8,-0.1 0.2,0.7 1.5,0.5 0.1,0 0.2,0.1 0.3,0.1 -0.1,-0.2 -0.1,-0.5 0.1,-0.5 0.1,0 0.2,-0.1 0.3,-0.1 v 0 c -0.1,0 -0.2,0 -0.2,-0.1 -0.3,-0.2 -0.3,0.4 -0.5,0.3 0,0 -0.1,0 -0.1,-0.1 -0.1,0 -0.3,-0.1 -0.2,-0.2 0,0 0.1,0.1 0.2,0.1 v -0.1 c 0,0 0,-0.1 0.1,-0.1 0.1,0 0.1,0 0.1,0 v 0 c 0,-0.1 -0.4,0.1 -0.3,-0.2 v -0.1 c 0,-0.1 0.1,-0.2 0.2,-0.1 l -0.1,0.1 h 0.1 v 0 0 0 c 0,0 0,0 0,-0.1 v -0.1 c 0,-0.1 0.1,-0.2 0.3,-0.1 0,0 -0.1,0 -0.2,0.1 h 0.1 v 0.1 0 c 0,0 0,0 0.1,0 0,0 0,0 0.1,0 0,-0.1 0.1,-0.1 0.2,-0.1 0.2,0.1 0,0.2 0.2,0.3 h 0.1 c 0.1,0 0.4,0 0.4,0 0,0.1 0,0.3 -0.1,0.4 -0.1,0 0,0.2 -0.1,0.3 0.2,-0.1 0.3,-0.1 0.5,-0.1 0.4,0 0.5,0.1 0.7,0.2 0.2,0.1 0.4,0.1 0.5,0 0,0 0.1,0 0.1,-0.1 0,-0.2 0,-0.2 0,-0.3 0,-0.1 -0.2,0 -0.3,0 -0.1,0 -0.1,0 -0.1,-0.1 -0.1,0 -0.2,-0.1 -0.2,-0.2 0,0 0.1,0.1 0.2,0.1 v 0 c 0,-0.1 0.2,-0.2 0.3,-0.1 v 0 c -0.1,-0.1 -0.2,-0.2 -0.1,-0.2 0,0 0,0 0.1,0 0,-0.1 0.1,-0.2 0.1,-0.2 0,0 0,0.1 0,0.2 h 0.1 c 0.1,0 0,0.2 0.1,0.2 v 0 c 0,-0.1 -0.1,-0.2 0,-0.3 0,0 0,0 0.1,0 0,-0.1 0.1,-0.1 0.2,-0.1 0,0 -0.1,0 -0.1,0.1 l 0.1,0.1 c 0.1,0.2 -0.1,0.2 -0.1,0.3 0,0.1 0.2,0 0.2,0.2 0,0 0,0.1 -0.1,0.1 v 0 0 c 0.1,0 0.1,0 0.2,0.1 -0.2,0 -0.1,0.1 -0.1,0.2 v 0 c 0.1,0 0.1,0.1 0.1,0.2 -0.1,-0.1 -0.2,-0.2 -0.2,0 0,0 0,0.1 -0.2,0.1 -0.3,0 -0.5,0 -1,0.1 0.5,0 1.4,0.1 1.4,0.4 m -6.9,-0.5 v 0 0 m 1.4,1.3 c 0,0 0.2,-0.1 0.3,-0.1 -0.2,0 -0.1,-0.1 -0.2,-0.1 -0.1,0 -0.1,0.1 -0.1,0.2 m -0.2,0.1 c 0,-0.1 -0.1,-0.1 -0.2,-0.1 -0.1,0.1 0,0.1 -0.1,0.2 0.1,0 0.3,-0.1 0.3,-0.1 m -0.3,-0.7 c 0,0.1 0.1,0.1 0,0 0.2,0.1 0.2,0.1 0.2,0.2 0,0.1 0,0.1 -0.1,0.1 0.1,0 0.1,0 0.1,0.1 h -0.1 c 0,0 0,0.1 0.1,0.1 0,0 0,0 0.1,0 l 0.3,-0.1 c 0,0 0.1,0 0.1,-0.1 v -0.1 c 0,0 0,0.1 -0.1,0.1 0,0 0,0 0,-0.1 -0.1,0 -0.1,0.1 -0.2,0 0,-0.1 0,-0.1 0,-0.1 v -0.1 c 0,-0.1 -0.1,-0.2 -0.2,-0.1 -0.3,-0.1 -0.3,0 -0.2,0.1 M -86,115 c 0,0 0,0.1 0,0 v 0" />

		</g>

		<g
   id="g3251"
   transform="translate(77.9788,799.8422)">

			<path
   id="path3253"
   d="m -81,113.9 c 0,0.3 -0.3,0.4 -1.1,0.4 -0.8,0 -3.4,-0.3 -3.4,0.2 0,0.3 0.9,0.2 1.5,0.2 0,0 0.1,-0.1 0.2,-0.1 1.1,-0.3 2.2,0.4 3,0.2 -0.6,0.6 -1.4,-0.1 -2.2,0.1 0.5,0 1,0.1 1,0.2 -0.4,-0.2 -1.4,0.2 -1.9,-0.1 0,0 -0.1,0 -0.1,-0.1 -0.8,0 -1.8,0.1 -1.8,-0.4 0,-0.8 2.9,-0.3 3.6,-0.3 0.7,0 0.9,-0.1 0.9,-0.2 0,-0.2 -0.7,-0.2 -1.1,-0.2 -0.6,0 -3.4,0.4 -4.5,0 0.1,0.2 0.3,0.5 0.2,0.6 0.1,0 0.2,0.1 0.2,0.2 -0.1,0.1 -0.1,0.1 -0.2,0.1 v 0.1 c 0,0 0,0.1 -0.1,0.1 0,0 -0.1,0.1 -0.2,0.2 -0.1,0.1 -0.2,0.1 -0.2,0.1 0,0 -0.1,0 -0.2,0 -0.1,0 -0.1,0 -0.1,-0.1 0,0 -0.1,0.1 -0.2,0.1 0,-0.1 -0.1,-0.2 0,-0.3 -0.1,0 -0.2,-0.3 -0.3,-0.2 0,-0.1 0.1,-0.1 0.1,-0.1 -0.1,-0.1 -0.1,-0.3 -0.2,-0.3 l 0.1,-0.1 c 0,-0.1 0,-0.2 0,-0.3 h -0.1 c -0.1,0 -0.1,0 -0.1,0 h -0.1 c -0.1,0 -0.2,0.2 -0.5,0.4 -0.2,0.1 -0.2,0.2 -0.2,0.3 0,0.1 0.1,0.3 0.1,0.4 v 0.1 c 0,0.1 -0.2,0.2 -0.2,0.1 l 0.1,-0.1 -0.1,-0.1 v -0.1 0 c 0,0 0,0 0,-0.1 v 0 c 0,0.1 -0.1,0.3 -0.2,0.3 0,0 0,0 -0.1,0 v 0 c 0,0.1 -0.1,0.2 -0.2,0.1 h 0.1 v -0.1 c 0,-0.1 0.1,-0.1 0.2,-0.2 v 0 0 0 c -0.2,0.1 -0.3,0 -0.3,-0.1 v -0.1 c -0.1,-0.1 -0.1,-0.1 0,-0.2 v 0.1 0 c 0,0 0,0 0.1,0 0,0 0,0 0.1,0 v 0 c 0,0 0,0 0.1,0 v 0 c -0.1,-0.1 -0.1,-0.2 0.1,-0.3 v 0 c 0,-0.2 -0.3,-0.2 -0.3,0 -0.2,-0.3 0.1,-0.5 0.4,-0.3 v 0 c 0,0 0,-0.1 0.1,-0.1 0,0 0,0 0.1,0 v 0 c 0,-0.1 0,-0.1 0.1,-0.2 v 0.1 c 0,0 0.2,-0.3 0.6,-0.5 0.1,0 0.2,0 0.2,0.1 0,0 0,-0.1 0.1,-0.1 0,-0.2 0.1,-0.3 0.1,-0.3 0,0 -0.6,0 -0.7,0 -0.2,-0.1 -0.5,-0.2 -0.7,-0.1 0,0.1 0,0.1 -0.1,0.2 0,0.1 -0.1,0.1 -0.1,0.1 h -0.1 c -0.1,0.1 -0.2,0.1 -0.3,0 0,0 0.1,0 0.2,-0.1 V 113 c 0,-0.1 0,-0.1 0.2,-0.2 v 0 h -0.1 c -0.1,0.1 -0.1,0.2 -0.2,0.1 0,0 0,0 -0.1,0 v 0 c -0.1,0 -0.3,-0.1 -0.2,-0.3 l 0.1,0.1 v -0.1 c 0,-0.1 0.1,-0.2 0.3,-0.1 v 0 c -0.1,-0.1 -0.2,-0.2 -0.1,-0.3 0,0 0,0 0.1,0 v 0 c 0,-0.1 0.1,-0.3 0.2,-0.2 0,0 -0.1,0.1 -0.1,0.2 h 0.1 c 0.1,0 0.1,0.2 0.1,0.2 v 0 c 0,-0.1 0,-0.2 0.2,-0.2 0.1,0 0.2,0.1 0.2,0.2 v 0 c 0,0 0.1,-0.1 0.1,-0.2 l 0.1,0.1 c 0,-0.1 0,-0.2 -0.1,-0.2 0.1,0 0.2,0.1 0.2,0.2 v -0.1 0 c 0,0 0.1,0 0.3,0 v 0 c 0,-0.1 0,-0.1 0,-0.1 0,0 0,0.1 0.1,0.1 0,0 0,-0.1 0.1,-0.2 0,0.4 0.5,0.2 0.7,0.3 v 0 c 0,0 0,-0.1 -0.1,-0.1 0.1,0 0.2,0 0.3,0.1 v 0 l 0.4,0.2 v 0.1 h 0.1 v 0 c 0.2,0 0.2,0.2 0.3,0.2 1.4,-0.2 0.6,0.6 2.2,0.4 0.1,0 0.1,0 0.2,0.1 -0.1,-0.2 -0.1,-0.4 0.1,-0.4 0.1,0 0.2,-0.1 0.3,-0.1 v 0 c -0.1,0 -0.2,0 -0.2,-0.1 -0.3,-0.2 -0.3,0.4 -0.5,0.3 0,0 -0.1,0 -0.1,-0.1 -0.1,0 -0.3,-0.1 -0.2,-0.2 0,0 0.1,0.1 0.2,0.1 0,0 0,0 0,-0.1 0,0 0,-0.1 0.1,-0.1 0.1,0 0.1,0 0.1,0 v 0 c 0,-0.1 -0.3,0.1 -0.3,-0.2 v -0.1 c 0,-0.1 0.1,-0.2 0.2,-0.1 l -0.1,0.1 h 0.1 v 0 0 0 c 0,0 0,0 0,-0.1 v -0.1 c 0,-0.1 0.1,-0.2 0.3,-0.1 0,0 -0.1,0 -0.1,0.1 h 0.1 v 0.1 0 c 0,0 0,0 0.1,0 0,0 0,0 0.1,0 0,-0.1 0.1,-0.1 0.2,-0.1 0.2,0.1 0,0.2 0.2,0.3 h 0.1 c 0.1,0 0.4,0 0.4,0 0,0.1 0,0.3 -0.1,0.4 -0.1,0 0,0.2 -0.1,0.3 0.2,-0.1 0.3,-0.1 0.5,-0.1 0.4,0 0.5,0.1 0.6,0.2 0.2,0.1 0.4,0.1 0.5,0 0,0 0.1,0 0.1,-0.1 0,-0.2 0,-0.2 0,-0.3 0,-0.1 -0.2,0 -0.3,0 -0.1,0 -0.1,0 -0.1,-0.1 -0.1,0 -0.2,-0.1 -0.2,-0.2 0,0 0.1,0.1 0.2,0.1 v 0 c 0,-0.1 0.2,-0.2 0.2,-0.1 v 0 c -0.1,-0.1 -0.2,-0.2 -0.1,-0.2 0,0 0,0 0.1,0 0,-0.1 0.1,-0.2 0.1,-0.2 0,0 0,0.1 0,0.2 h 0.1 c 0.1,0 0,0.2 0.1,0.2 v 0 c 0,-0.1 0,-0.2 0,-0.2 0,0 0,0 0.1,0 0,-0.1 0.1,-0.1 0.2,-0.1 0,0 -0.1,0 -0.1,0.1 l 0.1,0.1 c 0.1,0.2 -0.1,0.2 -0.1,0.3 0,0.1 0.2,0 0.2,0.2 0,0 0,0.1 -0.1,0.1 v 0 0 c 0.1,0 0.1,0 0.1,0.1 -0.2,0 -0.1,0.1 -0.1,0.2 v 0 c 0,0 0.1,0.1 0.1,0.2 0,-0.1 -0.2,-0.2 -0.2,0 0,0 0,0.1 -0.2,0.1 -0.3,0 -0.4,0 -0.9,0.1 0.4,-0.2 1.2,-0.1 1.2,0.2 m -6.1,0.7 c 0,0 0.2,-0.1 0.3,-0.1 -0.1,0 -0.1,-0.1 -0.2,-0.1 -0.1,0 -0.1,0.1 -0.1,0.2 m -0.2,0.1 c 0,-0.1 -0.1,-0.1 -0.2,-0.1 -0.1,0.1 0,0.1 -0.1,0.2 0.1,0 0.3,-0.1 0.3,-0.1 m -0.3,-0.7 c 0,0.1 0,0.1 0,0 0.2,0.1 0.2,0.1 0.2,0.2 0,0.1 0,0.1 -0.1,0.1 0.1,0 0.1,0 0.1,0.1 h -0.1 c 0,0 0,0 0.1,0.1 0,0 0,0 0.1,0 l 0.3,-0.1 c 0,0 0.1,0 0.1,-0.1 v -0.1 c 0,0 0,0.1 -0.1,0.1 0,0 0,0 0,-0.1 -0.1,0 -0.1,0 -0.2,0 v -0.1 -0.1 c 0,-0.1 -0.1,-0.1 -0.2,-0.1 -0.2,0 -0.2,0.1 -0.2,0.1" />

		</g>

		<g
   id="g3255"
   transform="translate(82.0435,797.6415)">

			<path
   id="path3257"
   d="m -73.1,109.7 v 0 c 0.1,0.1 0.1,0.1 0.1,0.3 -0.1,-0.1 -0.2,-0.2 -0.2,0 0,0 0,0.1 -0.2,0.1 -0.3,0 -0.5,0 -1,0.1 0,0 -0.1,0 0,0 0.5,0 1.4,0.1 1.4,0.4 0,0.3 -0.3,0.4 -1.1,0.4 -0.8,0 -3.4,-0.3 -3.4,0.2 0,0.3 0.9,0.2 1.5,0.2 0,0 0.1,-0.1 0.2,-0.1 1.1,-0.3 2.3,0.5 3,0.3 -0.8,0.3 -1.4,-0.2 -2.2,0 0.5,0 1,0.1 1,0.2 -0.4,-0.2 -1.4,0.2 -1.9,-0.1 0,0 -0.1,0 -0.1,-0.1 -0.8,0 -1.8,0.1 -1.8,-0.4 0,-0.8 2.9,-0.3 3.6,-0.3 0.7,0 0.9,-0.1 0.9,-0.2 0,-0.2 -0.7,-0.3 -1.1,-0.3 -0.7,0 -3.4,0.4 -4.5,0 0.1,0.2 0.3,0.5 0.2,0.6 0.1,0 0.2,0.1 0.2,0.2 -0.1,0.1 -0.1,0.1 -0.2,0.1 v 0.1 c 0,0 0,0.1 -0.1,0.1 0,0 -0.1,0.1 -0.2,0.2 -0.1,0.1 -0.2,0.1 -0.2,0.1 h -0.1 c -0.1,0 -0.1,0 -0.1,-0.1 -0.1,0 -0.1,0.1 -0.2,0.1 0,-0.1 -0.1,-0.2 0,-0.3 -0.1,0 -0.2,-0.3 -0.3,-0.2 0,-0.1 0.1,-0.1 0.1,-0.1 -0.1,-0.1 -0.1,-0.3 -0.2,-0.3 0.1,-0.1 0.1,-0.1 0.1,-0.1 0,-0.1 0,-0.2 0,-0.2 H -80 c -0.1,0 -0.1,0 -0.1,0 h -0.1 c -0.1,0 -0.2,0.2 -0.5,0.4 -0.2,0.1 -0.2,0.2 -0.2,0.3 0,0.1 0.1,0.3 0.1,0.4 v 0.1 c 0,0.1 -0.1,0.2 -0.2,0.1 l 0.1,-0.1 -0.1,-0.1 v -0.1 0 c 0,0 0,0 0,-0.1 v 0 c 0,0.1 -0.1,0.2 -0.2,0.3 h -0.1 v 0 c 0,0.1 -0.1,0.2 -0.2,0.1 h 0.1 v -0.1 c 0,-0.1 0.1,-0.2 0.2,-0.2 v 0 0 0 c -0.2,0.1 -0.3,0 -0.3,-0.1 v -0.1 c -0.1,0 -0.1,-0.1 0,-0.2 v 0.1 0 c 0,0 0,0 0.1,0 0,0 0,0 0.1,0 v 0 c 0,0 0,0 0.1,0 v 0 c -0.1,-0.1 -0.1,-0.3 0.1,-0.3 v 0 c 0,-0.2 -0.3,-0.2 -0.3,0 -0.2,-0.3 0.1,-0.5 0.4,-0.3 v 0 c 0,0 0,-0.1 0.1,-0.1 0,0 0,0 0.1,0 v 0 c 0,-0.1 0,-0.1 0.1,-0.2 0,0.1 0,0.1 0,0.1 0,0 0.2,-0.3 0.5,-0.5 0,0 0.1,0.1 0.2,0.1 0,-0.1 0.1,-0.1 0.1,-0.2 h 0.1 c 0,-0.2 0.2,-0.3 0.1,-0.3 -0.1,0 -0.4,0 -0.5,0 -0.2,-0.1 -0.5,-0.2 -0.7,-0.1 0,0.1 0,0.1 -0.1,0.2 0,0.1 -0.1,0.1 -0.1,0.1 h -0.1 c -0.1,0.1 -0.2,0.1 -0.3,0 0,0 0.1,0 0.1,-0.1 v -0.1 c 0,-0.1 0,-0.1 0.2,-0.2 v 0 h -0.1 c -0.1,0.1 -0.1,0.2 -0.2,0.1 0,0 0,0 -0.1,0 v 0 c -0.1,0 -0.3,-0.1 -0.2,-0.3 l 0.1,0.1 v -0.1 c 0,-0.1 0.1,-0.2 0.3,-0.1 v 0 c -0.1,-0.1 -0.2,-0.2 -0.1,-0.3 0,0 0,0 0.1,0 v 0 c 0,-0.1 0.1,-0.2 0.2,-0.2 0,0 -0.1,0.1 -0.1,0.2 h 0.1 c 0.1,0 0.1,0.2 0.1,0.2 v 0 c 0,-0.1 0,-0.2 0.2,-0.2 0.1,0 0.2,0.1 0.2,0.2 v 0 c 0,0 0.1,-0.1 0.1,-0.2 l 0.1,0.1 c 0,-0.1 0,-0.2 -0.1,-0.3 0.1,0 0.2,0.1 0.2,0.3 0,0 0,-0.1 0.1,-0.1 v 0 c 0,0 0.1,0 0.3,0 v 0 c 0,-0.1 0,-0.1 0,-0.1 0,0 0,0.1 0.1,0.1 0,0 0,-0.1 0.1,-0.2 0,0.4 0.2,0.2 0.5,0.4 v 0 c 0,0 0,-0.1 -0.1,-0.1 0.1,-0.1 0.4,0.1 0.4,0.3 0,0 0.1,0 0.2,0.1 0.2,0 0.2,0.2 0.3,0.2 1.4,-0.2 0.6,0.6 2.2,0.4 0.1,0 0.1,0.1 0.2,0.2 -0.1,-0.2 -0.1,-0.5 0.1,-0.5 0.1,0 0.2,-0.1 0.3,-0.1 v 0 c -0.1,0 -0.2,0 -0.2,-0.1 -0.2,-0.2 -0.3,0.4 -0.5,0.3 0,0 -0.1,0 -0.1,-0.1 -0.1,0 -0.2,-0.1 -0.2,-0.2 0,0 0.1,0.1 0.2,0.1 v -0.1 c 0,0 0,-0.1 0.1,-0.1 0.1,0 0.1,0 0.1,0 v 0 c 0,-0.1 -0.3,0.1 -0.3,-0.2 0,0 0,-0.1 0.1,-0.1 0,-0.1 0.1,-0.2 0.2,-0.1 l -0.1,0.1 h 0.1 v 0 0 0 c 0,0 0,0 0,-0.1 v -0.1 c 0,-0.1 0.1,-0.2 0.3,-0.1 0,0 -0.1,0 -0.1,0.1 h 0.1 v 0.1 0 c 0,0 0,0 0.1,0 v 0 c 0,-0.1 0.1,-0.1 0.2,-0.1 0.2,0.1 0,0.2 0.2,0.2 h 0.1 c 0.1,0 0.3,0 0.4,0 0,0.1 0,0.3 -0.1,0.4 -0.1,0 0,0.2 -0.1,0.3 0.2,-0.1 0.3,-0.1 0.5,-0.1 0.4,0 0.5,0.1 0.7,0.2 0.2,0.1 0.4,0.1 0.5,0 0,0 0.1,0 0.1,-0.1 -0.1,-0.2 0,-0.2 0,-0.3 0,-0.1 -0.2,0 -0.3,0 -0.1,0 -0.1,0 -0.1,-0.1 -0.1,0 -0.2,-0.1 -0.2,-0.2 0,0 0.1,0.1 0.2,0.1 v 0 c 0,-0.1 0.1,-0.2 0.2,-0.1 v 0 c -0.1,-0.1 -0.2,-0.2 -0.1,-0.2 0,0 0,0 0.1,0 0,-0.1 0,-0.2 0.1,-0.2 0,0 0,0.1 0,0.2 h 0.1 c 0.1,0 0.1,0.2 0.2,0.2 v 0 c 0,-0.1 -0.1,-0.2 0,-0.2 0,0 0,0 0.1,0 0,-0.1 0.1,-0.1 0.2,-0.1 0,0 -0.1,0 -0.1,0.1 l 0.1,0.1 c 0.1,0.2 -0.1,0.2 -0.1,0.3 0,0.1 0.2,0 0.2,0.2 0,0 0,0.1 -0.1,0.1 v 0 0 c 0.1,0 0.1,0 0.2,0.1 -0.5,-0.3 -0.4,-0.1 -0.4,0 m -6.1,1.5 c 0,0 0.2,-0.1 0.3,-0.1 C -79,111 -79,111 -79,111 c -0.1,0 -0.2,0.1 -0.2,0.2 m -0.2,0.1 c 0,-0.1 -0.1,-0.1 -0.2,-0.1 -0.1,0.1 0,0.1 -0.1,0.2 0.1,0 0.3,-0.1 0.3,-0.1 m -0.3,-0.7 c 0,0.1 0.1,0.1 0,0 0.2,0.1 0.2,0.1 0.2,0.2 0,0.1 0,0.1 -0.1,0.1 0.1,0 0.1,0 0.1,0.1 h -0.1 v 0.1 c 0,0 0,0 0.1,0 l 0.3,-0.1 c 0,0 0,0 0,-0.1 v -0.1 c 0,0 0,0.1 -0.1,0.1 0,0 0,0 0,-0.1 -0.1,0 -0.1,0.1 -0.2,0 v -0.1 -0.1 c 0,-0.1 -0.1,-0.1 -0.2,0 0,-0.1 0,0 0,0 m -0.2,0.4 z m 0.1,0.3 v 0 0 m 1.2,-1.9 v 0 0" />

		</g>

		<g
   id="g3259"
   transform="translate(80.7611,796.9224)">

			<path
   id="path3261"
   d="m -75.6,108.3 c 0,-0.1 0.1,-0.1 0.2,-0.1 1,-0.3 2.2,0.5 2.8,0.3 -0.8,0.3 -1.3,-0.2 -2.1,0 0.5,0 0.9,0.1 1,0.2 -0.4,-0.2 -1.3,0.1 -1.8,-0.1 0,0 0,0 -0.1,0 -0.6,0 -1,0 -1,-0.4 0,-0.8 2.1,-0.3 2.8,-0.3 0.7,0 0.6,-0.1 0.6,-0.2 0,-0.2 -0.8,-0.2 -1.1,-0.2 -0.6,0 -2.3,0.3 -3.4,0.1 0.1,0.2 0.3,0.4 0.2,0.5 0.1,0 0.2,0.1 0.2,0.2 -0.1,0.1 -0.1,0.1 -0.2,0.1 v 0.1 c 0,0 0,0.1 -0.1,0.1 0,0 -0.1,0.1 -0.2,0.2 -0.1,0.1 -0.2,0.1 -0.2,0.1 h -0.1 c -0.1,0 -0.1,0 -0.1,-0.1 0,0 -0.1,0.1 -0.2,0.1 0,-0.1 -0.1,-0.2 0,-0.3 -0.1,0 -0.2,-0.2 -0.3,-0.2 0,-0.1 0.1,-0.1 0.1,-0.1 -0.1,-0.1 -0.1,-0.3 -0.2,-0.3 l 0.1,-0.1 c 0,-0.1 0,-0.2 -0.1,-0.3 h -0.1 v 0 c -0.1,0 -0.2,0 -0.4,0.1 -0.2,0.1 -0.2,0.2 -0.2,0.3 0,0.1 0.1,0.3 0.1,0.4 v 0.1 c 0,0.1 -0.1,0.2 -0.2,0.1 l 0.1,-0.1 -0.1,-0.1 v -0.1 0 c 0,0 0,0 0,-0.1 v 0 c 0,0.1 -0.1,0.2 -0.2,0.2 0,0 0,0 -0.1,0 v 0 c 0,0.1 -0.1,0.2 -0.2,0.1 h 0.1 v -0.1 c 0,-0.1 0.1,-0.1 0.2,-0.1 v 0 0 0 c -0.2,0.1 -0.3,0 -0.3,-0.1 v -0.1 c -0.1,0 -0.1,-0.1 0,-0.2 v 0.1 0 0 c 0,0 0,0 0.1,0 v 0 c 0,0 0,0 0.1,0 v 0 c -0.1,-0.1 -0.1,-0.2 0.1,-0.3 v 0 c 0,-0.2 -0.3,-0.2 -0.3,0 -0.2,-0.3 0.1,-0.5 0.4,-0.3 v 0 c 0,0 0,-0.1 0.1,-0.1 v 0 0 c 0,-0.1 0,-0.1 0.1,-0.1 v 0.1 c 0,0 0,0.1 0.3,-0.1 0,0 0,-0.1 0.1,-0.1 h 0.2 c 0,-0.2 0,-0.4 0,-0.4 0,0 -0.4,0 -0.5,0 -0.1,-0.1 -0.5,-0.2 -0.6,-0.1 0,0.1 0,0.1 -0.1,0.2 0,0.1 -0.1,0.1 -0.1,0.1 h -0.1 c -0.1,0.1 -0.2,0.1 -0.3,0 0,0 0.1,0 0.1,-0.1 v -0.1 c 0,0 0,-0.1 0.2,-0.2 v 0 h -0.1 c -0.1,0.1 -0.1,0.2 -0.2,0.1 0,0 0,0 -0.1,0 v 0 c -0.1,0 -0.3,-0.1 -0.2,-0.2 0,0 0,0.1 0.1,0.1 v -0.1 c 0,-0.1 0.1,-0.2 0.3,0 v 0 c -0.1,-0.1 -0.2,-0.2 -0.1,-0.3 0,0 0,0 0.1,0 v 0 c 0,-0.1 0.1,-0.2 0.2,-0.2 0,0 -0.1,0.1 -0.1,0.2 h 0.1 c 0.1,0 0.1,0.2 0.1,0.2 v 0 c 0,-0.1 0,-0.2 0.2,-0.2 0.1,0 0.2,0.1 0.2,0.2 v 0 c 0,0 0.1,-0.1 0.1,-0.2 l 0.1,0.1 c 0,-0.1 0,-0.2 -0.1,-0.2 0.1,0 0.2,0.1 0.2,0.2 0,0 0,-0.1 0.1,-0.1 v 0 c 0,0 0.1,0 0.3,0 v 0 c 0,-0.1 0,-0.1 0,-0.1 0,0 0,0.1 0.1,0.1 0,0 0,-0.1 0.1,-0.2 0,0.4 0.3,0.3 0.5,0.4 v 0 c 0,0 0,-0.1 -0.1,-0.1 0.2,-0.1 0.5,0.2 0.6,0.4 0,0 0,0 0.1,0.1 v -0.1 c 0.2,0 0.2,0.2 0.3,0.2 0.7,-0.1 0.2,0.6 1.3,0.4 0.1,0 0.2,0.1 0.3,0.1 -0.1,-0.1 -0.1,-0.5 0.1,-0.5 0.1,0 0.2,-0.1 0.3,-0.1 v 0 c -0.1,0 -0.2,0 -0.2,-0.1 -0.2,-0.2 -0.2,0.4 -0.5,0.3 h -0.1 c -0.1,0 -0.2,-0.1 -0.2,-0.2 0,0 0.1,0.1 0.2,0.1 0,0 0,0 0,-0.1 0,0 0,-0.1 0.1,-0.1 0.1,0 0.1,0 0.1,0 v 0 c 0,-0.1 -0.3,0.1 -0.3,-0.2 v -0.1 c 0,-0.1 0.1,-0.2 0.2,-0.1 l -0.1,0.1 h 0.1 v 0 0 0 c 0,0 0,0 0,-0.1 v -0.1 c 0,-0.1 0.1,-0.2 0.3,-0.1 0,0 -0.1,0 -0.1,0.1 h 0.1 v 0.1 0 c 0,0 0,0 0.1,0 v 0 c 0,-0.1 0.1,-0.1 0.2,-0.1 0.2,0.1 0,0.2 0.2,0.2 h 0.1 c 0.1,0 0.3,0 0.4,0 0,0.1 0,0.3 -0.1,0.4 -0.1,0 0,0.1 -0.1,0.3 0.1,-0.1 0.3,-0.1 0.5,-0.1 0.4,0 0.5,0 0.7,0.1 0.2,0.1 0.4,0.1 0.5,0 0,0 0.1,0 0,-0.1 -0.1,-0.2 0,-0.2 -0.1,-0.3 -0.1,-0.1 -0.2,0 -0.3,0 -0.1,0 -0.1,0 -0.1,0 -0.1,0 -0.2,-0.1 -0.2,-0.2 0,0 0.1,0.1 0.2,0.1 v 0 c 0,-0.1 0.1,-0.2 0.2,-0.1 v 0 c -0.1,-0.1 -0.3,-0.2 -0.2,-0.2 0,0 0,0 0.1,0 0,-0.1 0,-0.2 0.1,-0.2 0,0 0,0.1 0.1,0.2 h 0.1 c 0.1,0 0.1,0.2 0.2,0.2 v 0 c -0.1,-0.1 -0.1,-0.2 0,-0.2 0,0 0,0 0.1,0 0,-0.1 0.1,-0.1 0.2,-0.1 0,0 -0.1,0 -0.1,0.1 l 0.1,0.1 c 0.1,0.2 -0.1,0.2 0,0.3 0,0.1 0.2,0 0.3,0.2 0,0 0,0.1 -0.1,0.1 v 0 0 c 0.1,0 0.1,0 0.2,0.1 -0.1,0 -0.1,0.1 -0.1,0.2 v 0 c 0.1,0 0.1,0.1 0.1,0.2 -0.1,-0.1 -0.2,-0.1 -0.2,0 0,0 0,0.1 -0.1,0.1 -0.2,0 -0.6,0 -1,0.1 v 0 c 0.5,0 1.4,0.1 1.4,0.4 0,0.2 0,0.4 -0.8,0.4 -0.8,0 -2.6,-0.3 -2.6,0.2 -0.5,-0.3 -0.1,-0.3 0.3,-0.3 m -2.6,0 c 0,-0.1 -0.1,-0.1 -0.2,-0.1 -0.1,0.1 0,0.1 -0.1,0.2 0.1,0 0.2,-0.1 0.3,-0.1 m 0.2,-0.5 c -0.1,0 -0.1,0.1 0,0 -0.2,0.1 -0.1,0.1 0,0 -0.1,0 -0.2,0 -0.2,0 0,-0.1 0,-0.1 0,-0.1 v -0.1 c 0,0 -0.1,-0.1 -0.2,-0.1 -0.1,0 -0.1,0.1 -0.1,0.2 0,0.1 0.1,0.1 0.1,0.1 0.1,0 0.1,0 0.1,0.1 0,0.1 0,0.1 -0.1,0.1 0.1,0 0.1,0 0.1,0.1 h -0.1 c 0,0 0,0 0,0.1 0,0 0,0 0.1,0 l 0.3,-0.1 c 0,-0.1 0,-0.1 0,-0.3 0,0.1 0,0.1 0,0 m 0.1,0.2 c -0.1,0 -0.1,0.1 -0.1,0.2 0,0 0.2,-0.1 0.3,-0.1 -0.1,0 -0.1,-0.1 -0.2,-0.1" />

		</g>

		<g
   id="g3263"
   transform="translate(80.4738,795.6606)">

			<path
   id="path3265"
   d="m -76.2,105.8 c 0,-0.1 0.1,-0.1 0.2,-0.1 1,-0.3 2.2,0.5 2.8,0.3 -0.8,0.3 -1.3,-0.2 -2.1,0 0.5,0 0.9,0.1 1,0.2 -0.4,-0.2 -1.3,0.2 -1.8,-0.1 0,0 -0.1,0 -0.1,-0.1 -0.3,-0.1 -0.6,-0.2 -0.6,-0.5 0,-0.7 2.6,-0.1 2.6,-0.4 0,-0.2 -0.5,-0.4 -1.2,-0.4 -0.5,0 -1.4,0.3 -2.6,0.1 v 0 c 0.1,0.2 0.3,0.5 0.2,0.6 0.1,0 0.2,0.1 0.2,0.2 -0.1,0.1 -0.1,0.1 -0.2,0.1 0,0.1 0,0.1 0,0.1 0,0 0,0.1 -0.1,0.1 0,0 -0.1,0.1 -0.2,0.1 -0.1,0.1 -0.2,0 -0.2,0.1 h -0.1 c 0,0 -0.1,0 -0.1,-0.1 0,0 -0.1,0.1 -0.2,0.1 0,-0.1 -0.1,-0.2 0,-0.3 -0.1,0 -0.2,-0.2 -0.3,-0.2 0,-0.1 0.1,-0.1 0.1,-0.1 -0.1,-0.1 -0.1,-0.3 -0.2,-0.3 l 0.1,-0.1 c 0,-0.2 -0.1,-0.5 0,-0.6 -0.2,0.2 -0.4,0.5 -0.6,0.6 -0.2,0.1 -0.2,0.2 -0.2,0.3 0,0.1 0.1,0.2 0.1,0.4 v 0.1 c 0,0.1 -0.1,0.1 -0.2,0.1 l 0.1,-0.1 -0.1,-0.1 v -0.1 0 c 0,0 0,0 0,-0.1 v 0 c 0,0.1 -0.1,0.2 -0.2,0.2 0,0 0,0 -0.1,0 v 0 c 0,0.1 -0.1,0.2 -0.2,0.1 h 0.1 v -0.1 c 0,-0.1 0.1,-0.1 0.2,-0.1 v 0 0 0 c -0.2,0.1 -0.2,0 -0.3,-0.1 v -0.1 c -0.1,0 -0.1,-0.1 0,-0.2 v 0.1 0 0 c 0,0 0,0 0.1,0 v 0 c 0,0 0,0 0.1,0 v 0 c -0.1,-0.1 -0.1,-0.2 0.1,-0.2 v 0 c 0,-0.2 -0.3,-0.2 -0.3,0 -0.2,-0.2 0.1,-0.4 0.3,-0.3 v 0 c 0,0 0,-0.1 0.1,-0.1 v 0 0 c 0,-0.1 0,-0.1 0.1,-0.1 v 0.1 c 0,0 0,-0.3 0.3,-0.5 0.1,-0.2 0.2,-0.3 0.4,-0.3 0.1,-0.1 0.1,-0.2 0.1,-0.2 0,0 -0.4,0 -0.5,0 -0.1,0 -0.2,-0.1 -0.3,-0.1 v 0 0 c -0.1,0 -0.2,0 -0.3,0.1 0,0 0,0.1 -0.1,0.2 0,0.1 -0.1,0.1 -0.1,0.1 h -0.1 c -0.1,0.1 -0.2,0.1 -0.2,0 0,0 0.1,0 0.1,-0.1 v -0.1 c 0,0 0,-0.1 0.2,-0.2 v 0 h -0.1 c -0.1,0.1 -0.1,0.2 -0.2,0.1 0,0 0,0 -0.1,0 v 0 c -0.1,0 -0.2,-0.1 -0.2,-0.2 0,0 0,0.1 0.1,0.1 v -0.1 c 0,-0.1 0.1,-0.2 0.3,0 v 0 c -0.1,-0.1 -0.2,-0.2 -0.1,-0.3 v 0 0 c 0,-0.1 0.1,-0.2 0.2,-0.2 0,0 -0.1,0.1 -0.1,0.2 h 0.1 c 0.1,0 0.1,0.2 0.1,0.2 v 0 c 0,-0.1 0,-0.2 0.2,-0.2 0.1,0 0.2,0.1 0.2,0.2 v 0 l 0.1,-0.1 c 0,0 0.1,0 0.1,0.1 0,-0.1 0,-0.1 -0.1,-0.2 0,0 0.2,0.1 0.2,0.2 0,0 0,0 0,-0.1 v 0 c 0,0 0.1,0 0.3,0 v 0 -0.1 c 0,0 0,0.1 0.1,0.1 0,0 0,-0.1 0.1,-0.2 0,0.3 0.2,0.2 0.4,0.3 v 0 c 0,0 0,-0.1 -0.1,-0.1 0.1,0 0.3,0.1 0.3,0.2 0,0 0.2,0.2 0.2,0.6 h 0.1 c 0.3,0 0.4,0.2 0.7,0.2 -0.1,-0.1 -0.1,-0.3 -0.1,-0.4 0,-0.1 0.2,-0.3 0.3,-0.4 v 0 c -0.1,0 -0.2,0 -0.2,-0.1 -0.2,-0.1 -0.2,0.3 -0.5,0.2 0,0 0,0 -0.1,-0.1 -0.1,0 -0.2,-0.1 -0.2,-0.2 0,0 0.1,0.1 0.2,0.1 v 0 c 0,0 0,-0.1 0.1,-0.1 h 0.1 v 0 c 0,-0.1 -0.3,0.1 -0.2,-0.2 v -0.1 c 0,-0.1 0.1,-0.2 0.2,-0.1 l -0.1,0.1 h 0.1 v 0 0 0 c 0,0 0,0 0,-0.1 v -0.1 c 0,-0.1 0.1,-0.2 0.3,-0.1 0,0 -0.1,0 -0.1,0.1 h 0.1 v 0.1 0 c 0,0 0,0 0.1,0 v 0 c 0,0 0.1,-0.1 0.2,-0.1 0.2,0.1 0,0.2 0.2,0.2 h 0.1 c 0.1,0 0.2,-0.1 0.3,0 0,0.1 0,0.3 -0.1,0.4 -0.1,0 0.1,0.5 -0.3,0.8 0.2,0 0.8,-0.1 0.9,0 0.2,0 0.4,-0.2 0.4,-0.2 V 104 c -0.2,-0.1 -0.1,-0.1 -0.2,-0.2 v 0 c 0,0 -0.1,0.1 -0.2,0.2 -0.1,0 -0.1,0 -0.1,0 -0.1,0 -0.2,0 -0.2,-0.1 0,0 0.1,0 0.2,0 v 0 -0.1 0 0 0 0 c -0.1,0 -0.3,0 -0.2,-0.1 0,0 0,0 0,-0.1 -0.1,0 -0.1,-0.1 0,-0.2 0,0 0,0.1 0.1,0.1 0,0 0,0 0,-0.1 0,0 0.1,0.1 0.2,0.1 v 0 c -0.1,0 -0.2,-0.1 -0.1,-0.2 0,0 0,0 0,-0.1 0,-0.1 0,-0.2 0.1,-0.2 v 0.1 h 0.1 c 0.2,0.1 0.1,0.2 0.1,0.3 0.1,0.1 0.1,-0.1 0.3,0 v 0.1 0 0 c 0,0 0.1,-0.1 0.1,0 -0.1,0.1 0,0.1 0.1,0.2 v 0 c 0,0 0.1,0 0.2,0.1 -0.1,0 -0.3,0.1 -0.2,0.1 0.2,0.1 0.2,0.2 0.1,0.3 -0.1,0.2 -0.4,0.2 -0.4,0.4 0.1,0 0.2,0 0.3,0 0.9,0 1.5,0.2 1.4,0.5 0,0.6 -2.7,0 -2.7,0.4 0.4,0.2 0.5,0.3 0.7,0.3 m -1.9,0 c 0,0 0.2,-0.1 0.3,-0.1 -0.1,0 -0.1,-0.1 -0.2,-0.1 -0.1,0 -0.1,0.1 -0.1,0.2 m -0.2,0 c 0,-0.1 -0.1,-0.1 -0.2,-0.1 -0.1,0.1 0,0.1 -0.1,0.2 0.1,0 0.3,0 0.3,-0.1 m -0.2,-0.6 c 0,0.1 0,0.1 0,0 0.1,0.1 0.2,0.1 0.2,0.1 0,0.1 0,0.1 -0.1,0.1 0.1,0 0.1,0 0.1,0.1 h -0.1 v 0.1 c 0,0 0,0 0.1,0 l 0.2,-0.1 c 0,0 0,0 0,-0.1 v -0.1 c 0,0 0,0.1 -0.1,0.1 0,0 0,0 0,-0.1 -0.1,0 -0.1,0 -0.1,0 v -0.1 -0.1 c 0,-0.1 -0.1,-0.1 -0.2,-0.1 -0.1,0.1 -0.1,0.2 0,0.2" />

		</g>

		<g
   id="g3267"
   transform="translate(65.8166,811.4315)">

			<path
   id="path3269"
   d="m -104.4,136.2 c 0,0.4 -0.3,0.6 -0.6,0.6 -0.4,0 -0.6,-0.3 -0.6,-0.6 0,-0.3 0.3,-0.6 0.6,-0.6 0.3,0 0.6,0.3 0.6,0.6" />

		</g>

		<g
   id="g3271"
   transform="translate(65.7403,812.0159)">

			<path
   id="path3273"
   d="m -104.6,137.4 c 0,0.4 -0.3,0.6 -0.6,0.6 -0.4,0 -0.6,-0.3 -0.6,-0.6 0,-0.3 0.3,-0.6 0.6,-0.6 0.4,-0.1 0.6,0.2 0.6,0.6" />

		</g>

		<g
   id="g3275"
   transform="translate(65.8646,812.2751)">

			<path
   id="path3277"
   d="m -104.3,137.9 c 0.4,0 0.6,0.3 0.6,0.6 0,0.3 -0.3,0.6 -0.6,0.6 -0.4,0 -0.6,-0.3 -0.6,-0.6 0,-0.3 0.2,-0.6 0.6,-0.6" />

		</g>

		<g
   id="g3279"
   transform="translate(66.4486,812.3138)">

			<path
   id="path3281"
   d="m -103.2,137.9 c 0.4,0 0.6,0.3 0.6,0.6 0,0.4 -0.3,0.6 -0.6,0.6 -0.4,0 -0.6,-0.3 -0.6,-0.6 0,-0.3 0.3,-0.6 0.6,-0.6" />

		</g>

		<g
   id="g3283"
   transform="translate(68.9408,812.7192)">

			<path
   id="path3285"
   d="m -98.4,138.7 c 0.3,-0.2 0.7,-0.2 0.9,0 0.2,0.2 0.2,0.7 0,0.9 -0.3,0.3 -0.7,0.3 -0.9,0 -0.2,-0.2 -0.2,-0.6 0,-0.9" />

		</g>

		<g
   id="g3287"
   transform="translate(68.8917,813.1867)">

			<path
   id="path3289"
   d="m -98.5,139.6 c 0.3,0.2 0.3,0.7 0,0.9 -0.3,0.2 -0.7,0.3 -0.9,0 -0.3,-0.2 -0.2,-0.7 0,-0.9 0.3,-0.2 0.7,-0.2 0.9,0" />

		</g>

		<g
   id="g3291"
   transform="translate(68.3103,813.2815)">

			<path
   id="path3293"
   d="m -99.6,139.8 c 0.2,0.2 0.2,0.7 0,0.9 -0.3,0.3 -0.7,0.3 -0.9,0 -0.2,-0.3 -0.2,-0.7 0,-0.9 0.2,-0.3 0.6,-0.3 0.9,0" />

		</g>

		<g
   id="g3295"
   transform="translate(67.8139,812.913)">

			<path
   id="path3297"
   d="m -100.6,139.1 c 0.2,0.2 0.2,0.7 0,0.9 -0.3,0.2 -0.7,0.2 -0.9,0 -0.2,-0.3 -0.2,-0.7 0,-0.9 0.3,-0.3 0.7,-0.3 0.9,0" />

		</g>

		<g
   id="g3299"
   transform="translate(66.415,813.2148)">

			<path
   id="path3301"
   d="m -103.3,139.7 0.5,-1.1 0.6,0.8 h 0.1 c 0.1,-0.4 0.1,-1 0.1,-1.4 0,-0.5 0.4,-0.8 0.8,-0.8 0.4,0 0.8,0.4 0.8,0.8 0,0.3 -0.2,0.6 -0.4,0.7 -0.3,0.2 -0.7,0.6 -0.9,0.8 v 0.1 l 1.1,-0.1 -0.4,1.2 -0.8,-0.7 v 0 l -0.1,1.2 -1.1,-0.4 0.7,-0.9 v -0.1 z" />

		</g>

		<g
   id="g3303"
   transform="translate(68.955,812.5322)">

			<path
   id="path3305"
   d="m -98.4,138.3 c 0.2,-0.4 0.3,-0.6 0.4,-0.9 -0.2,0.1 -0.4,0.3 -0.7,0.6 l 0.1,-1.5 c 0.2,0.3 0.3,0.4 0.5,0.5 -0.1,-1 -0.4,-1.4 -0.8,-1.4 -0.4,-0.1 -0.7,0.2 -0.8,0.5 -0.1,0.4 0.3,0.7 0.7,0.3 0.1,0.9 -0.7,0.9 -1,0.5 0.4,0.9 0.2,1.4 -0.5,1.9 -0.5,-0.8 -0.3,-1.3 0.3,-2 -0.6,0.3 -1.1,-0.2 -0.6,-0.9 0.1,0.6 0.6,0.4 0.7,0 0.1,-0.4 -0.3,-0.9 -0.9,-1.1 -0.9,-0.3 -1.2,0.3 -1.4,0.8 0.2,0.1 0.7,0.1 1.2,-0.3 l -0.4,1.5 c -0.2,-0.5 -0.5,-0.7 -0.9,-0.9 0,0.4 0.3,1.3 0.3,1.3 l -1.8,-0.7 c 0,0 0.8,-0.4 1.1,-0.7 -0.4,-0.1 -0.7,-0.2 -1.2,0 l 0.7,-1.4 c 0.1,0.6 0.4,1 0.7,1 0.2,-0.5 0.4,-1.1 -0.5,-1.6 -0.6,-0.3 -1.2,-0.2 -1.4,0.1 -0.2,0.4 0,0.9 0.5,0.5 -0.1,0.8 -0.8,0.8 -1,0.2 0,0.9 -0.2,1.4 -1.1,1.6 -0.2,-0.9 0.1,-1.4 0.9,-1.7 -0.5,0.1 -1,-0.4 -0.3,-1 0,0.5 0.5,0.6 0.7,0.2 0.2,-0.3 0.1,-0.7 -0.2,-0.9 -0.3,-0.2 -0.8,-0.2 -1.6,0.5 0.2,0.1 0.4,0.1 0.8,0 l -0.9,1.2 c 0.1,-0.4 0,-0.7 -0.1,-0.9 -0.2,0.2 -0.3,0.4 -0.4,0.9 l -0.7,-0.6 c 0.7,-0.4 1.5,-1.1 2.4,-2.4 1,0.6 2.8,1.5 3.9,2 1.1,0.5 3,1.1 4.2,1.3 -0.2,1.6 -0.1,2.6 0.1,3.4 z" />

		</g>

		<g
   id="g3307"
   transform="translate(73.7679,798.5743)">

			<path
   id="path3309"
   d="m -89.1,111.5 c 0.3,0.7 -1,1.5 -1.2,2.4 -0.2,0.9 0,1.9 -1.2,3.2 -1.1,1.3 -4.9,5.4 -6.1,6.7 0.3,0 1,0.2 1.7,-0.5 0.4,-0.4 1.2,-1.2 2,-1.9 1,2.6 2.3,4.5 4.1,6.6 0.2,0.3 0.5,0.5 0.7,0.8 -0.7,-0.2 -1.7,-0.4 -2.3,-0.8 0,1.1 0,2 -0.7,2.8 0.3,1.6 0,3.5 -3.5,5.8 1.8,-0.4 2.9,-2.1 4.3,-0.8 -1.2,0 -1.3,2.7 -5.8,5 1.7,0 3,-2.7 5,-1.2 -1.9,0.2 -2.5,3.5 -5.9,4.6 1.2,-0.1 2.4,-0.7 3.4,0.7 -1.2,-0.3 -1.9,0.8 -3.1,0.9 0.5,1.5 0.4,2.4 -0.1,3.4 -0.9,-0.1 -1.8,-0.3 -2.4,-0.9 -0.1,0.8 -0.9,0.8 -1.7,0.8 0,-0.3 0.2,-0.8 -0.2,-0.9 -0.6,-0.1 -2.6,-0.7 -4.2,-1.3 -1.5,-0.6 -3.3,-1.7 -3.8,-2.1 -0.3,-0.2 -0.6,0.3 -0.8,0.5 -0.5,-0.5 -1.1,-1.1 -0.7,-1.7 -0.9,-0.1 -1.8,-0.3 -2.6,-0.9 0,-1 0.8,-2 2.1,-2.5 -2.1,-2.1 -0.2,-4 -2,-5.8 2.6,-0.1 2.1,3.5 3.4,4 -0.1,-2.5 -1.5,-3 -1.5,-5.7 0,-1.5 0.9,-3 0.1,-4 2.2,0.6 1.6,5.4 2.9,6.8 0.2,-0.8 0.1,-1.6 -0.2,-2.4 -0.8,-2.2 0.1,-5.3 -1.1,-6.2 2.2,0.2 2.5,3.7 4.3,5 -1.6,-3.2 -3.1,-9.9 -5.5,-13.3 -3.7,-5.1 -6,-11.2 -9.4,-11.2 -1.5,0 -2.7,0.9 -2.7,2.8 0,5.7 9.9,9.7 9.9,15.8 0,2.7 -2.2,3.8 -3.6,3.8 -0.9,0 -2.1,-0.5 -3,-1.2 -0.4,0.2 -0.8,0.3 -1.2,0.3 -3.5,0 -2.6,-6.3 -5.6,-6.2 1.2,-0.7 3.3,0.6 4.5,2.4 -0.5,-4.1 -6.4,-3 -5.9,-7.9 0.8,3.8 10.1,3.3 10.1,9.1 0,0.7 -0.3,1.2 -0.8,1.6 0.7,0.4 1.4,0.6 2,0.6 1.1,0 2.1,-0.8 2.1,-2.5 0,-5.1 -9.8,-9.5 -9.8,-15.8 0,-1.1 0.3,-2 0.8,-2.6 -0.7,-0.3 -1.4,-0.2 -2,0.5 -0.1,-1.6 2.3,-2.6 3.7,-1.8 0.3,-0.1 0.7,-0.2 1,-0.2 -0.4,-1.2 -1.9,-1.6 -2.7,-1.5 2.4,-1.9 6.6,0.6 6.4,2.7 1.9,1.5 3.1,4.2 4.5,5.9 -0.1,-0.4 -0.2,-0.8 -0.2,-1.2 -1.4,-2.6 -2.7,-4.8 -3.1,-8.2 -0.3,-2.8 -1.7,-5.4 -3.7,-5.4 -0.4,0 -1.1,0.6 -1.5,0.3 -0.6,-0.5 0,-1.1 0,-1.6 0,-0.8 -1.5,-1.6 -1.5,-4.1 0,-1.1 0.6,-2.4 0.4,-3.2 0.6,0.3 1.5,1.4 1.8,2.7 0.7,-3.3 -1.4,-3.1 0.1,-6 0.2,1 1.1,1.4 1.7,1 0.6,-0.4 0.3,-0.7 -0.1,-1.1 -0.4,-0.4 -0.8,-2.6 1.1,-2.5 -0.4,0.2 -0.4,0.8 0.6,1 1.4,0.3 1.8,-0.4 3.2,-0.4 0.9,0 1.1,1.2 1.9,1.2 0.7,0 0.7,-0.6 0.5,-1 1.1,0.3 1.4,0.9 1.4,1.6 0,0.6 -0.5,1 -0.1,1.3 0.4,0.2 1.7,0 1.2,-1.1 0.7,0.1 1.1,0.6 1.1,1.5 0,0.8 -1,1.3 -1.8,1.2 -0.2,0.5 -0.9,0.8 -1.6,0.8 -1.6,0 -1.4,-1.3 -2.5,-1.3 -1.8,0 -3.5,2.3 -3.5,6.2 0,2.1 2.2,2.6 3.8,3.3 1.6,0.7 4.3,2.4 6,5.2 1.3,2.2 1.3,4.6 1.2,7.4 2.2,-1.3 2.5,-3.1 2.5,-4.4 0,-1.7 -0.9,-2.4 -1.6,-2.7 -0.6,-0.3 -0.8,-0.2 -0.9,-0.5 -0.1,-0.4 0.2,-0.7 0.5,-0.8 0.8,-0.4 0.6,-1.2 0.9,-2 0.2,-0.8 1,-2.1 2.2,-3.1 0.1,0.5 0.1,1.3 0,2.4 1.7,-0.8 0.3,-4.3 3.7,-4.3 -0.6,0.4 -0.4,1.2 -0.1,1.4 0.3,0.2 0.8,-0.2 1.4,-1.1 0.6,-0.9 0.5,-0.8 2,-0.8 1.6,0 0.9,0.5 1.7,0.5 0.8,0 0.8,-1 0.3,-1.7 1.4,0.4 1.8,1.5 1.3,2.6 1.2,0.7 1.9,-0.3 2.1,-1 1.2,1.2 0,2.7 -1,2.8 0,0.4 -0.4,0.9 -0.9,1 -0.5,0 -1,0.1 -1.6,0 -0.6,0 -0.9,-0.9 -1.6,-0.9 -2.1,0 -6.2,3.8 -6.2,5.4 0,1.6 3.9,2.6 3.9,5.1 0,3.3 -3.2,4.4 -6,6.5 1,1.1 3.8,1.4 5.4,0.6 0.2,0.9 0.8,0.7 1,2.3 0.6,-1.4 0,-2.6 0.6,-3.2 0.5,0.7 1.6,0.6 1.6,2.3 0.4,-1.1 -0.5,-2.7 0.4,-3.5 0.1,0.9 0.7,1.1 1,1.1 0.3,0 0.6,-0.2 0.6,-0.8 0,-1.3 -1.6,-0.7 -1.6,-2.2 0,-0.6 0.8,-0.8 0.8,-1.2 0,-0.4 -0.6,-1 -1.4,-0.5 0.3,-0.6 0.8,-1.1 1.5,-1.1 0.7,0 1.5,0.6 1.8,1.3 0.4,-0.9 0.1,-2 -0.6,-2.1 0.7,-0.4 2.4,0 2.2,2.2 1,-0.2 1.5,-0.8 0.9,-2 0.8,0.2 1.5,0.6 1.5,1.4 0,0.6 -0.7,0.8 -0.4,1.7 m -18.6,29.7 c -0.9,-0.1 -0.9,0.8 -2.5,1.2 1.1,0.2 2.5,0.8 3.8,1.3 0.3,-1.1 -0.2,-2.4 -1.3,-2.5 m 6.4,-6.7 c -1.2,-0.5 -2.1,0.5 -2.3,1.2 -0.2,0.7 -0.4,1.3 -0.1,1.5 0.5,0.5 0.7,0.9 0.4,1.5 -0.3,0.7 -1.1,0.4 -1.9,0.2 0.4,0.7 0.4,1.2 -0.1,1.1 -0.6,-0.1 -0.6,-1.1 -1,-0.9 -0.3,0.1 -0.1,0.7 -0.1,1 0,0.4 0.3,0.6 0.7,0.8 l 3.3,1.3 c 0.4,0.2 0.7,0.2 1,-0.1 0.2,-0.2 0.8,-0.5 0.6,-0.8 -0.2,-0.3 -0.9,0.4 -1.4,0 -0.4,-0.3 -0.1,-0.6 0.7,-0.9 -0.7,-0.4 -1.5,-0.7 -1.2,-1.5 0.2,-0.6 0.6,-0.8 1.3,-0.8 0.4,0 0.6,-0.5 1,-1.2 0.2,-0.7 0.3,-1.9 -0.9,-2.4 m 0.2,9.3 c -0.9,-0.7 -2.1,-0.1 -2.6,0.9 1.2,0.5 2.7,1.1 3.6,1.7 -0.9,-1.4 -0.3,-2 -1,-2.6" />

		</g>

		<g
   id="g3311"
   transform="translate(95.226,793.1646)">

			<path
   id="path3313"
   d="m -47.7,101 c 0,-1.5 1.2,-2.8 2.8,-2.8 1.5,0 2.8,1.2 2.8,2.8 0,1.6 -1.2,2.8 -2.8,2.8 -1.6,0 -2.8,-1.2 -2.8,-2.8 m 0.7,0 c 0,1.1 0.9,2.1 2.1,2.1 1.1,0 2.1,-0.9 2.1,-2.1 0,-1.2 -1,-2 -2.2,-2 -1.1,0 -2,0.9 -2,2" />

		</g>

		<g
   id="g3315"
   transform="translate(91.6944,792.2925)">

			<path
   id="path3317"
   d="m -54.5,99.4 c -0.4,-0.3 -0.6,-0.6 -0.7,-1 -0.1,-0.5 0.1,-1 0.4,-1.4 0.3,-0.4 0.8,-0.6 1.4,-0.7 0.6,-0.1 1.1,0 1.6,0.2 0.5,0.3 0.8,0.7 0.9,1.2 0.2,1 -0.6,1.9 -1.8,2.1 -0.7,0 -1.4,-0.1 -1.8,-0.4 m 1.2,-2.5 c -0.8,0.1 -1.3,0.7 -1.2,1.3 0.1,0.3 0.2,0.5 0.4,0.6 0.3,0.2 0.8,0.3 1.2,0.2 0.7,-0.1 1.3,-0.6 1.3,-1.2 v -0.1 c -0.2,-0.6 -0.9,-1 -1.7,-0.8" />

		</g>

		<g
   id="g3319"
   transform="translate(86.4812,805.5724)">

			<path
   id="path3321"
   d="m -64.6,124.9 c -0.9,-0.7 -1.1,-1.8 -0.6,-2.5 v 0 c 0.6,-0.7 1.7,-0.7 2.6,-0.1 0.5,0.4 0.8,0.9 0.8,1.4 0,0.4 0,0.8 -0.3,1.1 -0.2,0.3 -0.6,0.5 -1,0.5 -0.4,0.2 -1,0 -1.5,-0.4 m -0.1,-1.6 c 0,0.4 0.2,0.8 0.6,1.1 0.3,0.2 0.7,0.4 1,0.3 0.2,0 0.4,-0.1 0.5,-0.3 0.1,-0.2 0.2,-0.4 0.1,-0.6 0,-0.3 -0.3,-0.7 -0.6,-0.9 -0.5,-0.4 -1.3,-0.4 -1.6,0 0,0.1 0,0.2 0,0.4" />

		</g>

		<g
   id="g3323"
   transform="translate(90.583,793.8654)">

			<path
   id="path3325"
   d="m -56.7,102.4 c -0.4,-0.4 -0.7,-1 -0.7,-1.7 v -0.1 c 0,-0.6 0.2,-1.2 0.6,-1.6 0.3,-0.3 0.7,-0.5 1.1,-0.5 0.4,0 0.8,0.2 1.1,0.5 0.4,0.4 0.7,1 0.7,1.7 0,0.6 -0.2,1.1 -0.5,1.5 -0.3,0.4 -0.8,0.7 -1.3,0.7 -0.3,0 -0.7,-0.2 -1,-0.5 m 1.1,-3.2 v 0 c -0.3,0 -0.5,0.2 -0.6,0.3 -0.3,0.3 -0.4,0.7 -0.4,1.2 0,0.5 0.2,0.9 0.5,1.2 0.1,0.1 0.4,0.3 0.6,0.3 0.6,0 1.1,-0.7 1,-1.5 0,-0.5 -0.2,-0.9 -0.5,-1.2 -0.1,-0.1 -0.3,-0.3 -0.6,-0.3 m 0,-0.7 z" />

		</g>

		<g
   id="g3327"
   transform="translate(85.9512,801.5124)">

			<path
   id="path3329"
   d="m -65.6,117.1 c -0.4,-0.1 -0.8,-0.4 -0.9,-0.8 -0.4,-0.9 0.1,-2 1.2,-2.5 0.6,-0.3 1.2,-0.3 1.8,-0.1 0.4,0.1 0.8,0.4 0.9,0.8 0.2,0.4 0.2,0.8 0,1.2 -0.2,0.5 -0.6,1 -1.2,1.3 -0.6,0.3 -1.3,0.3 -1.8,0.1 m 0.5,-2.7 c -0.7,0.3 -1.1,1.1 -0.8,1.6 0.1,0.3 0.4,0.4 0.5,0.4 0.4,0.1 0.8,0.1 1.2,-0.1 0.4,-0.2 0.7,-0.5 0.9,-0.9 0.1,-0.2 0.1,-0.4 0,-0.7 -0.1,-0.3 -0.4,-0.4 -0.5,-0.4 -0.4,-0.1 -0.8,-0.1 -1.3,0.1" />

		</g>

		<g
   id="g3331"
   transform="translate(95.898,802.4852)">

			<path
   id="path3333"
   d="m -46.4,119 c 0.9,-2.5 2.7,-3.4 4.1,-2.7 -3.1,0.4 -0.6,5.6 -4.5,5.6 -0.2,0 -0.4,0 -0.6,-0.1 -0.7,0.7 -1.4,1 -2.6,1 -1.7,0 -4.5,-1.6 -4.5,-4.9 0,-7.1 8.3,-7.8 8.3,-14.1 0,-1.8 -1.4,-3 -3,-3 -1.4,0 -2.5,1.6 -3.7,4 -0.6,1.2 -1.8,2.8 -3,4.4 0.4,-0.3 0.8,-0.4 1.2,-0.4 0.4,0 0.9,0.1 1.2,0.4 0.3,0.3 0.5,0.7 0.5,1.1 v 0.1 c 0,0.6 -0.2,1.1 -0.7,1.6 -0.5,0.5 -1,0.8 -1.6,0.8 -0.4,0 -0.9,-0.1 -1.2,-0.4 -0.3,-0.3 -0.5,-0.7 -0.5,-1.1 v -0.1 c 0,-0.2 0,-0.5 0.1,-0.7 -1.8,2.3 -3.4,4.6 -3.4,5.9 0,1.1 0.8,2.1 1.7,3.2 l 0.3,-0.2 0.2,0.3 c 0.3,0.4 1,1.1 2.5,2.7 l 0.1,0.1 v 0 l 0.3,0.4 -0.9,0.7 c 0.2,0.5 0.4,1.1 0.6,1.8 0.3,-1.1 0.9,-1.9 1.7,-1.6 -0.5,1.2 0.5,2.8 -0.2,5.7 0.7,-1.1 1.7,-1.7 2.4,-1.5 -1.8,1.6 0.5,3.9 -1.8,7.4 0.8,-0.3 1.3,-0.1 1.7,0.3 -2.2,0.3 -1.2,3.1 -5,4.1 1,0.2 1.5,0.7 1.4,1.2 -1,-0.7 -1.9,1.4 -5.2,1.3 -0.2,1.2 -1.4,2.6 -2.7,3.2 0.2,-1 0,-1.8 -0.2,-2.6 l -10.8,10.6 c -0.3,0.3 -0.5,0.4 -0.6,0.3 -0.1,-0.1 -0.1,-0.3 0.1,-0.5 l 9.3,-11.7 c -0.7,-0.2 -1.4,-0.5 -2.1,-0.8 -0.5,-0.2 -0.8,-0.6 -0.8,-1.2 -1.7,-0.9 -3.2,-1.9 -4,-2.6 -0.6,-0.5 -1,-0.6 -0.5,-1.8 0.2,-0.4 -0.4,-1.5 0.9,-0.7 0.9,0.5 2.9,1.6 3.2,0.9 0.2,-0.4 -0.8,-0.8 -1.5,-1.1 -0.7,-0.3 -1.4,-0.8 -1.3,-1.1 0.1,-0.3 0.6,0 0.7,-0.3 0,-0.3 0.3,-0.6 0.5,-0.6 0.3,0 0.6,0.6 0.8,0.4 0.2,-0.2 -0.1,-1.5 -0.3,-1.8 1.1,0.1 1.7,1.1 1.8,1.9 0,0.8 0.2,1 0.4,1.1 0.2,0.1 0.4,-0.8 0.1,-1.4 0.6,0.1 1.1,0.9 1.1,2.2 0.3,0.2 0.6,0.4 0.8,0.4 0.4,0 1.1,-1 2.1,-1 1.8,0 2.9,1.5 3,2.2 0.1,0.6 0,1.1 -0.3,1.5 0.7,-0.5 0.9,-1.4 0.9,-2 0,-2.6 -4.6,-3.8 -6.5,-5.6 -0.1,-0.1 -0.1,-0.1 -0.2,-0.2 l -2.2,0.8 -0.1,-0.5 c 0,0 0,-0.1 -0.1,-0.4 -0.2,-0.7 -0.7,-2.3 -1,-3.2 l -0.1,-0.4 0.2,-0.1 c -1.3,-1.7 -2.3,-3.6 -2.5,-5.6 -0.5,0.5 -1,1 -1.6,1.4 0.1,0.2 0.1,0.4 0.1,0.6 0,0.6 -0.1,1.1 -0.5,1.5 -0.3,0.3 -0.6,0.5 -1,0.5 -0.4,0 -0.7,-0.1 -1.1,-0.4 -0.1,-0.1 -0.1,-0.1 -0.2,-0.2 -0.1,0.1 -0.2,0.1 -0.2,0.2 -0.7,0.6 -1.6,1.2 -2.1,1.8 -0.2,0.3 -0.5,0.4 -0.9,0.4 -0.2,0 -0.6,0 -1,0 -0.3,0 -0.5,-0.2 -0.9,-0.6 -0.2,-0.2 -0.7,-0.5 -1.2,-1 0.3,-0.3 0.5,-0.5 0.8,-0.8 0.1,-0.2 0.3,-0.3 0.4,-0.5 0.1,0.1 0.3,0.2 0.4,0.3 0.2,0.2 0.5,0.2 0.8,0.2 0.3,0 0.7,-0.2 0.9,-0.6 0.2,-0.3 1.9,-2.6 3.4,-4.2 -0.2,-0.1 -0.3,-0.1 -0.5,-0.2 -0.6,-0.3 -2,-0.2 -2.6,-0.2 -0.6,0.1 -0.7,0.2 -1.2,-0.5 -0.2,-0.3 -0.4,-0.6 -0.6,-0.8 -0.2,-0.3 -0.4,-0.5 0.1,-1.3 0.6,-1.1 2.2,-3.9 2.8,-5.2 0.5,-1.3 1.1,-1.5 2.2,-1.9 1,-0.4 2.7,-1.4 2.9,-1.6 l 0.1,1 c -0.3,0.3 -1.3,0.7 -1.6,0.8 -0.4,0.1 -0.5,0.3 0,0.3 0.4,0 1.6,-0.4 2.5,-0.8 -0.3,1 -1.2,2 -1.7,2.6 -0.7,0.2 -1.5,0.2 -1.8,0 0,-0.2 -0.1,-0.5 -0.4,-0.5 -0.3,0 -0.5,0.2 -0.4,0.5 0.1,0.3 0.5,0.4 0.4,0.9 -0.1,0.6 -0.8,0.6 -1.2,0.7 -0.6,0.9 -1.3,2.2 -1.7,2.7 -0.3,0.5 -0.1,0.8 0.1,1 0.5,0.4 1.6,-0.2 3.8,-0.4 0.8,0 1.7,-0.1 2.7,-0.1 0.3,-2.6 1.3,-5 4.9,-5.9 1.7,-0.4 3.5,-1.7 4.1,-3.4 -7.1,0.1 -8.2,-2.6 -8.2,-5.3 0,-3 2.5,-2.8 2.5,-5 0,-1.9 -6,-2.7 -7.8,-3 -1.5,-0.2 -2.4,-0.6 -3.1,-1.3 -0.7,-0.7 -1.5,-1.4 -2.8,-2.8 0,0 0.6,-0.1 1.1,-0.1 l 1,1.3 c 0.3,0.4 0.5,0.8 0.7,0.8 0.2,0 0.1,-0.4 -0.2,-0.8 L -81,89.3 c 3.5,-0.2 3.7,1.1 3.7,1.6 0,0.5 -0.9,0.9 -0.4,1.2 0.5,0.3 0.9,0.1 1.3,-0.4 0.4,-0.5 0.5,-0.9 1.5,-0.5 0,0 7.6,3.2 8.6,3.6 0.9,0.4 0.6,0.8 0.1,1.2 -0.6,0.5 -0.7,1.2 -0.7,2 0,2.3 1.4,3 3.9,3 0,-0.4 -0.1,-0.8 -0.1,-1.1 0,-3.6 5.5,-7.1 6.9,-7.1 0.7,0 1.5,0.5 1.6,-1.7 0,-1.6 0.4,-2.7 0.1,-4.6 -0.3,-1.8 -0.8,-2.1 -1.9,-2.9 -1.1,-0.8 -2.2,-3.2 -2.6,-3.7 0.5,-0.3 1,-0.4 1.4,0.8 0.3,1 0.7,1.7 1.2,1.9 -0.4,-1.1 -0.7,-2.7 -1,-3.2 1.4,-0.2 3.7,1 3.7,2 0,1 -0.8,0.9 -0.8,1.6 0,0.3 0.4,0.6 0.8,0.6 0.6,0 1,-0.4 1,-0.7 0.6,0.3 1,0.9 1,2.4 0,0.6 0,1.1 -0.1,1.7 0,-0.1 0.1,-0.2 0.1,-0.2 0.3,-0.4 0.7,-0.7 1.3,-0.7 0.5,0 1.1,0.1 1.5,0.4 0.5,0.4 0.9,0.9 1,1.5 0,0.1 0,0.2 0,0.4 0,0.3 -0.1,0.6 -0.3,0.9 -0.2,0.3 -0.6,0.6 -1,0.7 -0.6,0.1 -1.2,0 -1.8,-0.4 -0.5,-0.3 -0.9,-0.8 -1,-1.3 -0.1,2 -0.3,3.8 -0.2,4.6 0.1,1.1 0.1,1.6 -0.2,1.8 -0.4,0.2 -0.8,-0.5 -1.3,-0.5 -0.5,0 -2.1,1.5 -2.1,3 0,1.6 1.7,3.6 1.6,5.7 0,0.7 0.4,1 0.7,0.4 0.3,-0.7 0.8,-1.7 1.5,-2.5 -0.4,-2.7 2.5,-5.3 4.9,-3.4 -1.2,-0.2 -2,0.9 -2.6,2 0.2,0 0.4,-0.1 0.7,-0.1 0.1,0 0.2,0 0.4,0 0.9,-1.1 3.6,-1 4.3,1.7 -0.5,-0.6 -1.5,-1 -2.2,-0.9 1,0.8 1.6,2.1 1.6,3.5 0,6.8 -8.3,7.6 -8.3,13.8 0,2.3 2,3.8 3.4,3.8 0.5,0 0.9,-0.2 1.3,-0.4 -0.5,-0.5 -0.8,-1.4 -0.8,-2.4 0.2,-4.9 8.2,-4.7 8.3,-7 0.7,3.9 -5.2,2.8 -5.4,7.6 m -21.3,18.8 c 0.4,0.7 0,1.9 1.4,1.9 0.7,0 1.3,-0.7 2.1,-0.9 -1.4,-0.2 -2.6,-0.5 -3.5,-1 m -7.3,-15 c 0,-0.4 -0.2,-0.8 -0.4,-1 -0.1,-0.1 -0.3,-0.2 -0.5,-0.2 -0.5,0 -0.8,0.6 -0.8,1.2 v 0.1 c 0,0.4 0.2,0.8 0.4,1 0.1,0.1 0.3,0.2 0.5,0.2 0.2,0 0.4,-0.2 0.5,-0.3 0.2,-0.3 0.3,-0.6 0.3,-1 m 23.6,-34.4 c 0.1,0.4 0.4,0.8 0.7,1 0.4,0.3 0.8,0.4 1.2,0.3 0.2,0 0.4,-0.1 0.6,-0.4 v 0 c 0.2,-0.2 0.1,-0.5 0.1,-0.7 -0.1,-0.4 -0.4,-0.8 -0.7,-1 -0.7,-0.4 -1.5,-0.4 -1.8,0.1 -0.2,0.3 -0.1,0.5 -0.1,0.7 m -5,22.8 c 0,0.2 0.1,0.4 0.3,0.6 0.2,0.2 0.5,0.2 0.6,0.2 0.4,0 0.8,-0.2 1.1,-0.6 0.3,-0.3 0.5,-0.8 0.5,-1.2 0,-0.2 -0.1,-0.4 -0.3,-0.6 v 0 c -0.2,-0.2 -0.5,-0.2 -0.6,-0.2 -0.4,0 -0.8,0.2 -1.1,0.6 -0.3,0.4 -0.5,0.8 -0.5,1.2 m -13.5,15.4 c 0.4,1.2 1.1,3.6 1.1,3.6 l 1.3,-0.5 c -0.4,-0.1 -0.8,-0.5 -1.2,-0.9 0.3,-0.1 0.8,-0.1 1.1,0.1 l -0.5,-1.3 c -0.1,0.2 -0.5,0.7 -0.8,0.7 -0.3,-1 0.4,-1.4 0.8,-1.6 0.8,-0.4 1.3,-0.5 1.5,-0.1 0.2,0.4 -0.3,1 -0.9,0.8 -0.1,0.7 0.3,1 0.7,1 0.3,0 0.6,-0.3 0.7,-0.7 0,1.1 0.4,1.9 1.4,2.2 0.4,-1 0.1,-1.7 -0.7,-2.5 0.4,0.2 0.9,0.1 1.1,-0.1 0.2,-0.4 0.2,-0.9 -0.4,-1.2 -0.1,0.7 -0.9,0.7 -1.2,0.3 -0.2,-0.4 0.1,-0.9 0.8,-1.3 0.8,-0.5 1.5,-0.2 1.9,0.5 -0.3,0.1 -0.7,0 -1.2,-0.2 l 0.8,1.6 c 0,-0.2 0.2,-0.6 0.5,-0.9 0.1,0.4 0.3,1 0,1.5 l 1.8,-1 c -0.6,-0.1 -1.1,-0.5 -1.3,-0.8 0.4,-0.2 0.8,-0.1 1.1,0 l -0.9,-1.5 c 0,0.5 -0.2,0.9 -0.4,1.1 -0.4,-0.7 -0.3,-1.4 0.5,-1.9 0.7,-0.4 1.2,-0.5 1.5,-0.1 0.3,0.4 -0.2,1.1 -0.8,0.9 0,0.7 0.4,1 0.8,1 0.4,0 0.6,-0.4 0.7,-0.9 0.3,1.1 0.7,1.7 1.8,1.9 0.2,-1 -0.3,-1.8 -1.2,-2.3 0.4,0.1 0.8,0.1 1,-0.2 0.2,-0.4 0.1,-0.9 -0.5,-1.1 -0.1,0.7 -0.9,0.8 -1.1,0.4 -0.2,-0.4 0.1,-0.8 0.8,-1.2 0.4,-0.3 1.1,-0.6 1.8,0.1 -0.2,0.3 -0.8,0.4 -1.1,0.4 l 0.8,1.1 c 0,-0.4 0.2,-0.8 0.5,-1 0.1,0.5 0.2,1.1 0.1,1.5 l 1.1,-0.8 c 0,0 -1.7,-1.8 -2.5,-2.8 z m 11.2,-28.2 c -0.5,-0.6 -1.2,-0.9 -1.7,-0.5 -0.5,0.4 -0.5,1.2 -0.1,1.8 0.4,0.6 1.2,0.9 1.7,0.5 0.5,-0.4 0.5,-1.2 0.1,-1.8 m 3.2,5.1 c -0.5,-0.6 -1.2,-0.9 -1.7,-0.5 -0.5,0.4 -0.5,1.2 -0.1,1.8 0.5,0.6 1.2,0.9 1.7,0.5 0.5,-0.3 0.6,-1.1 0.1,-1.8" />

		</g>

	</g>

</g>

<g
   aria-label="UK Health
Security
Agency"
   transform="translate(-4.7683715e-8,-24.817891)"
   id="text1163"
   style="font-size:59.0427px;line-height:1.25;font-family:'Segoe UI';-inkscape-font-specification:'Segoe UI, Normal';white-space:pre;shape-inside:url(#rect1165)"><path
     id="path1217"
     style="font-style:normal;font-variant:normal;font-weight:normal;font-stretch:normal;font-size:68.4553px;font-family:Arial;-inkscape-font-specification:Arial;fill:#000000;fill-opacity:1"
     sodipodi:type="inkscape:offset"
     inkscape:radius="0"
     inkscape:original="M 50.181641 286.56055 L 50.181641 314.87109 C 50.181641 320.06317 50.806804 324.16358 52.054688 327.17188 C 53.30257 330.15788 55.385532 332.4413 58.304688 334.02344 C 61.223842 335.60558 64.977932 336.39648 69.568359 336.39648 C 74.292488 336.39648 78.103129 335.49443 81 333.68945 C 83.919155 331.86219 85.9366 329.50038 87.050781 326.60352 C 88.164963 323.70664 88.722656 319.79577 88.722656 314.87109 L 88.722656 286.56055 L 82.236328 286.56055 L 82.236328 314.83789 C 82.236328 320.98817 81.223123 325.14513 79.195312 327.30664 C 77.167503 329.46815 73.768696 330.54883 69 330.54883 C 66.214547 330.54883 63.852738 330.00206 61.914062 328.91016 C 59.99767 327.81826 58.638148 326.2692 57.835938 324.26367 C 57.05601 322.23586 56.666016 319.09406 56.666016 314.83789 L 56.666016 286.56055 L 50.181641 286.56055 z M 99.25 286.56055 L 99.25 335.5625 L 105.73633 335.5625 L 105.73633 318.58203 L 113.75781 310.75977 L 131.20508 335.5625 L 139.76172 335.5625 L 118.30273 306.41406 L 138.85938 286.56055 L 130.06836 286.56055 L 105.73633 310.86133 L 105.73633 286.56055 L 99.25 286.56055 z M 164.39648 286.56055 L 164.39648 335.5625 L 170.88086 335.5625 L 170.88086 312.46484 L 196.35156 312.46484 L 196.35156 335.5625 L 202.83594 335.5625 L 202.83594 286.56055 L 196.35156 286.56055 L 196.35156 306.68164 L 170.88086 306.68164 L 170.88086 286.56055 L 164.39648 286.56055 z M 288.87305 286.56055 L 288.87305 335.5625 L 294.89062 335.5625 L 294.89062 286.56055 L 288.87305 286.56055 z M 323.23438 286.56055 L 323.23438 335.5625 L 329.25195 335.5625 L 329.25195 316.14258 C 329.25195 313.35712 329.58539 311.17198 330.25391 309.58984 C 330.92241 308.0077 332.03585 306.75933 333.5957 305.8457 C 335.17784 304.90979 336.86184 304.44336 338.64453 304.44336 C 341.02888 304.44336 342.86575 305.13404 344.1582 306.51562 C 345.47294 307.87492 346.13086 310.05812 346.13086 313.06641 L 346.13086 335.5625 L 352.14844 335.5625 L 352.14844 313.06641 C 352.14844 309.59017 351.72373 306.93859 350.87695 305.11133 C 350.05246 303.28407 348.6711 301.85708 346.73242 300.83203 C 344.79374 299.7847 342.51033 299.26172 339.88086 299.26172 C 335.60241 299.26172 332.05969 300.88917 329.25195 304.14258 L 329.25195 286.56055 L 323.23438 286.56055 z M 311.30273 287.66406 L 305.31836 291.27344 L 305.31836 300.06445 L 300.90625 300.06445 L 300.90625 304.74414 L 305.31836 304.74414 L 305.31836 325.16602 C 305.31836 328.77596 305.56445 331.14869 306.05469 332.28516 C 306.54493 333.39934 307.39044 334.30335 308.59375 334.99414 C 309.79707 335.68493 311.49199 336.0293 313.67578 336.0293 C 315.0128 336.0293 316.52715 335.85068 318.2207 335.49414 L 317.35156 330.17969 C 316.25966 330.33567 315.37944 330.41406 314.71094 330.41406 C 313.81959 330.41406 313.12891 330.27016 312.63867 329.98047 C 312.17072 329.69078 311.82636 329.30079 311.60352 328.81055 C 311.40296 328.32031 311.30273 327.21584 311.30273 325.5 L 311.30273 304.74414 L 317.35156 304.74414 L 317.35156 300.06445 L 311.30273 300.06445 L 311.30273 287.66406 z M 227.4375 299.26172 C 222.5351 299.26172 218.54584 300.91101 215.4707 304.20898 C 212.39556 307.50696 210.85742 312.14127 210.85742 318.11328 C 210.85742 323.88473 212.37372 328.37514 215.4043 331.58398 C 218.45716 334.77054 222.5794 336.36328 227.77148 336.36328 C 231.89395 336.36328 235.28184 335.36099 237.93359 333.35547 C 240.58535 331.34994 242.40038 328.53067 243.38086 324.89844 L 237.16406 324.13086 C 236.25044 326.67119 235.01298 328.52093 233.45312 329.67969 C 231.89327 330.83843 230.01077 331.41797 227.80469 331.41797 C 224.84097 331.41797 222.36801 330.38097 220.38477 328.30859 C 218.40153 326.23622 217.29901 323.24924 217.07617 319.34961 L 243.54883 319.34961 C 243.57109 318.63653 243.58203 318.10263 243.58203 317.74609 C 243.58203 311.88549 242.07861 307.3405 239.07031 304.10938 C 236.06203 300.87825 232.18391 299.26172 227.4375 299.26172 z M 265.94336 299.26172 C 262.89051 299.26172 260.20617 299.68448 257.88867 300.53125 C 255.57117 301.35575 253.79981 302.54952 252.57422 304.10938 C 251.34862 305.64694 250.4684 307.67335 249.93359 310.19141 L 255.81641 310.99414 C 256.46263 308.47609 257.454 306.72657 258.79102 305.74609 C 260.15032 304.74333 262.2442 304.24219 265.07422 304.24219 C 268.10479 304.24219 270.38821 304.92195 271.92578 306.28125 C 273.06225 307.28401 273.63086 309.01169 273.63086 311.46289 C 273.63086 311.68573 273.61992 312.20871 273.59766 313.0332 C 271.30244 313.83541 267.72697 314.52609 262.86914 315.10547 C 260.48479 315.39516 258.70056 315.69585 257.51953 316.00781 C 255.91511 316.45349 254.46823 317.11141 253.17578 317.98047 C 251.90561 318.84954 250.86861 320.0086 250.06641 321.45703 C 249.28648 322.88318 248.89648 324.465 248.89648 326.20312 C 248.89648 329.16685 249.9444 331.60704 252.03906 333.52344 C 254.13372 335.41754 257.12966 336.36328 261.0293 336.36328 C 263.39136 336.36328 265.59834 335.97329 267.64844 335.19336 C 269.72081 334.41343 271.87124 333.0777 274.09961 331.18359 C 274.27788 332.85487 274.67879 334.31462 275.30273 335.5625 L 281.58594 335.5625 C 280.82829 334.2032 280.31623 332.78713 280.04883 331.31641 C 279.80371 329.82341 279.68164 326.28069 279.68164 320.6875 L 279.68164 312.66602 C 279.68164 309.99198 279.58141 308.14223 279.38086 307.11719 C 279.02432 305.46819 278.39916 304.10868 277.50781 303.03906 C 276.61647 301.94717 275.22419 301.04511 273.33008 300.33203 C 271.43597 299.61896 268.97393 299.26172 265.94336 299.26172 z M 227.50391 304.20898 C 230.55677 304.20898 233.04259 305.36805 234.95898 307.68555 C 236.20686 309.17855 236.96306 311.41829 237.23047 314.4043 L 217.41016 314.4043 C 217.61071 311.30688 218.64575 308.83197 220.51758 306.98242 C 222.41168 305.13288 224.74074 304.20898 227.50391 304.20898 z M 273.59766 317.74609 L 273.59766 319.95117 C 273.59766 322.60293 273.27513 324.60945 272.62891 325.96875 C 271.78213 327.72916 270.45536 329.12144 268.65039 330.14648 C 266.84542 331.14925 264.78429 331.65039 262.4668 331.65039 C 260.12701 331.65039 258.34473 331.11649 257.11914 330.04688 C 255.91582 328.97726 255.31445 327.63958 255.31445 326.03516 C 255.31445 324.98783 255.5933 324.04209 256.15039 323.19531 C 256.70748 322.32625 257.49839 321.66833 258.52344 321.22266 C 259.54848 320.77698 261.298 320.37606 263.77148 320.01953 C 268.13907 319.39558 271.41386 318.63743 273.59766 317.74609 z M 66.996094 371.29297 C 63.698117 371.29297 60.700225 371.85066 58.003906 372.96484 C 55.307588 374.07902 53.257384 375.71739 51.853516 377.87891 C 50.449647 380.01813 49.748047 382.3234 49.748047 384.79688 C 49.748047 387.04752 50.31666 389.0868 51.453125 390.91406 C 52.611873 392.71904 54.361391 394.23534 56.701172 395.46094 C 58.506145 396.41913 61.658864 397.44326 66.160156 398.53516 C 70.661449 399.60477 73.568079 400.39568 74.882812 400.9082 C 76.932907 401.68813 78.403577 402.65766 79.294922 403.81641 C 80.186267 404.95287 80.632812 406.29056 80.632812 407.82812 C 80.632812 409.34341 80.164428 410.74661 79.228516 412.03906 C 78.314887 413.30923 76.911687 414.31152 75.017578 415.04688 C 73.12347 415.78223 70.94028 416.15039 68.466797 416.15039 C 65.681344 416.15039 63.173675 415.67109 60.945312 414.71289 C 58.71695 413.73241 57.067661 412.4622 55.998047 410.90234 C 54.950717 409.32021 54.281875 407.30472 53.992188 404.85352 L 47.875 405.38672 C 47.964134 408.66241 48.857225 411.60375 50.550781 414.21094 C 52.266621 416.79584 54.61751 418.73489 57.603516 420.02734 C 60.611806 421.31979 64.333137 421.9668 68.767578 421.9668 C 72.266107 421.9668 75.407906 421.33071 78.193359 420.06055 C 81.001096 418.7681 83.151528 416.9749 84.644531 414.67969 C 86.137534 412.36219 86.882813 409.90016 86.882812 407.29297 C 86.882812 404.6635 86.203051 402.34537 84.84375 400.33984 C 83.484449 398.31204 81.379648 396.64091 78.527344 395.32617 C 76.566385 394.43483 72.945282 393.39978 67.664062 392.21875 C 62.405127 391.01544 59.15218 389.84545 57.904297 388.70898 C 56.63413 387.57252 55.998047 386.12369 55.998047 384.36328 C 55.998047 382.33547 56.889185 380.60779 58.671875 379.18164 C 60.476849 377.73321 63.339801 377.00977 67.261719 377.00977 C 71.027652 377.00977 73.870718 377.80068 75.787109 379.38281 C 77.725785 380.96495 78.861058 383.30492 79.195312 386.40234 L 85.412109 385.93359 C 85.300691 383.05901 84.498863 380.48582 83.005859 378.21289 C 81.512857 375.93996 79.373344 374.2232 76.587891 373.06445 C 73.824721 371.88342 70.628324 371.29297 66.996094 371.29297 z M 228.17188 372.12891 L 228.17188 379.04883 L 234.18945 379.04883 L 234.18945 372.12891 L 228.17188 372.12891 z M 250.43359 373.23242 L 244.45117 376.8418 L 244.45117 385.63281 L 240.03906 385.63281 L 240.03906 390.3125 L 244.45117 390.3125 L 244.45117 410.73633 C 244.45117 414.34627 244.69531 416.71901 245.18555 417.85547 C 245.67579 418.96966 246.52324 419.87171 247.72656 420.5625 C 248.92988 421.25329 250.62285 421.59961 252.80664 421.59961 C 254.14366 421.59961 255.65996 421.42099 257.35352 421.06445 L 256.48438 415.75 C 255.39248 415.90599 254.51226 415.98438 253.84375 415.98438 C 252.9524 415.98438 252.26172 415.83851 251.77148 415.54883 C 251.30353 415.25914 250.95721 414.86915 250.73438 414.37891 C 250.53382 413.88867 250.43359 412.78615 250.43359 411.07031 L 250.43359 390.3125 L 256.48438 390.3125 L 256.48438 385.63281 L 250.43359 385.63281 L 250.43359 373.23242 z M 109.54492 384.83008 C 104.64252 384.83008 100.65522 386.47937 97.580078 389.77734 C 94.504937 393.07532 92.966797 397.71158 92.966797 403.68359 C 92.966797 409.45505 94.483099 413.9435 97.513672 417.15234 C 100.56653 420.3389 104.68877 421.93359 109.88086 421.93359 C 114.00333 421.93359 117.38927 420.93131 120.04102 418.92578 C 122.69277 416.92025 124.50975 414.10098 125.49023 410.46875 L 119.27344 409.69922 C 118.35981 412.23955 117.12235 414.0893 115.5625 415.24805 C 114.00264 416.40679 112.12014 416.98633 109.91406 416.98633 C 106.95034 416.98633 104.47543 415.94933 102.49219 413.87695 C 100.50894 411.80457 99.40643 408.81956 99.183594 404.91992 L 125.65625 404.91992 C 125.67852 404.20684 125.68945 403.67099 125.68945 403.31445 C 125.68945 397.45386 124.18602 392.90886 121.17773 389.67773 C 118.16944 386.44661 114.29133 384.83008 109.54492 384.83008 z M 147.38281 384.83008 C 144.32995 384.83008 141.49976 385.55547 138.89258 387.00391 C 136.30767 388.43006 134.38149 390.58049 133.11133 393.45508 C 131.84116 396.32966 131.20508 399.68284 131.20508 403.51562 C 131.20508 409.44307 132.67575 414.00095 135.61719 417.1875 C 138.58091 420.35178 142.49178 421.93359 147.34961 421.93359 C 151.22696 421.93359 154.49278 420.78545 157.14453 418.49023 C 159.81856 416.17273 161.47877 412.97438 162.125 408.89648 L 156.20703 408.12891 C 155.78364 411.1372 154.78136 413.36602 153.19922 414.81445 C 151.61709 416.26289 149.64527 416.98633 147.2832 416.98633 C 144.34176 416.98633 141.95811 415.90565 140.13086 413.74414 C 138.3036 411.58263 137.38867 408.11636 137.38867 403.34766 C 137.38867 398.64582 138.33636 395.21425 140.23047 393.05273 C 142.12458 390.86893 144.58661 389.77734 147.61719 389.77734 C 149.62271 389.77734 151.32855 390.37871 152.73242 391.58203 C 154.15858 392.78534 155.14994 394.5805 155.70703 396.96484 L 161.55664 396.0625 C 160.86585 392.47483 159.29494 389.71016 156.84375 387.77148 C 154.39255 385.81052 151.23788 384.83008 147.38281 384.83008 z M 218.37891 384.83008 C 216.97504 384.83008 215.68299 385.23294 214.50195 386.03516 C 213.34321 386.83736 212.07299 388.49562 210.69141 391.01367 L 210.69141 385.63281 L 205.27539 385.63281 L 205.27539 421.13086 L 211.29297 421.13086 L 211.29297 402.54688 C 211.29297 400.00654 211.62642 397.66657 212.29492 395.52734 C 212.7406 394.12348 213.48783 393.03188 214.53516 392.25195 C 215.58249 391.44974 216.76339 391.04883 218.07812 391.04883 C 219.54885 391.04883 221.01951 391.4825 222.49023 392.35156 L 224.5625 386.76953 C 222.46783 385.47708 220.40671 384.83008 218.37891 384.83008 z M 167.13867 385.63281 L 167.13867 407.62695 C 167.13867 410.18957 167.26074 412.06115 167.50586 413.24219 C 167.86239 415.00259 168.47468 416.4951 169.34375 417.7207 C 170.23509 418.92402 171.5837 419.92826 173.38867 420.73047 C 175.21593 421.53268 177.17682 421.93359 179.27148 421.93359 C 184.0179 421.93359 187.77198 419.92707 190.53516 415.91602 L 190.53516 421.13086 L 195.91797 421.13086 L 195.91797 385.63281 L 189.90039 385.63281 L 189.90039 404.65234 C 189.90039 407.68291 189.56694 410.00104 188.89844 411.60547 C 188.25221 413.1876 187.13683 414.44495 185.55469 415.38086 C 183.97255 416.29449 182.27958 416.75195 180.47461 416.75195 C 178.66964 416.75195 177.15529 416.30736 175.92969 415.41602 C 174.70409 414.50238 173.9003 413.25401 173.52148 411.67188 C 173.27636 410.57998 173.1543 408.46231 173.1543 405.32031 L 173.1543 385.63281 L 167.13867 385.63281 z M 228.17188 385.63281 L 228.17188 421.13086 L 234.18945 421.13086 L 234.18945 385.63281 L 228.17188 385.63281 z M 258.95703 385.63281 L 272.42773 421.19727 C 272.18261 421.84349 272.004 422.33372 271.89258 422.66797 C 271.0458 425.05232 270.43351 426.54678 270.05469 427.14844 C 269.54217 427.95064 268.88424 428.57386 268.08203 429.01953 C 267.27982 429.4652 266.21007 429.6875 264.87305 429.6875 C 263.89257 429.6875 262.74637 429.50888 261.43164 429.15234 L 262.09961 434.80273 C 263.52576 435.29297 264.81782 435.53711 265.97656 435.53711 C 267.89296 435.53711 269.54225 435.06873 270.92383 434.13281 C 272.30541 433.21919 273.53195 431.7723 274.60156 429.78906 C 275.40378 428.31834 276.52813 425.63206 277.97656 421.73242 L 291.48047 385.63281 L 285.46484 385.63281 L 277.87695 406.32422 C 276.91875 408.95369 276.09314 411.64894 275.40234 414.41211 C 274.6447 411.53752 273.78828 408.79663 272.83008 406.18945 L 265.44141 385.63281 L 258.95703 385.63281 z M 109.61328 389.77734 C 112.66613 389.77734 115.15001 390.93641 117.06641 393.25391 C 118.31429 394.74691 119.07244 396.98665 119.33984 399.97266 L 99.517578 399.97266 C 99.718131 396.87524 100.75513 394.40227 102.62695 392.55273 C 104.52106 390.70319 106.85011 389.77734 109.61328 389.77734 z M 63.519531 457.69922 L 44.701172 506.69922 L 51.585938 506.69922 L 56.966797 491.85938 L 77.457031 491.85938 L 83.173828 506.69922 L 90.560547 506.69922 L 70.505859 457.69922 L 63.519531 457.69922 z M 66.861328 462.8457 C 67.618971 465.49746 68.778037 468.88534 70.337891 473.00781 L 75.451172 486.57812 L 58.839844 486.57812 L 64.220703 472.20508 C 65.357168 469.10765 66.237387 465.9877 66.861328 462.8457 z M 108.04102 470.40039 C 104.89902 470.40039 102.15814 471.18038 99.818359 472.74023 C 97.500863 474.30009 95.729506 476.51603 94.503906 479.39062 C 93.278306 482.24292 92.666016 485.36289 92.666016 488.75 C 92.666016 493.67468 94.003699 497.89716 96.677734 501.41797 C 99.351766 504.93878 103.12769 506.69922 108.00781 506.69922 C 111.92973 506.69922 115.20646 505.15211 117.83594 502.05469 C 117.85822 505.97661 117.71236 508.54979 117.40039 509.77539 C 116.86558 511.78092 115.84146 513.3409 114.32617 514.45508 C 112.81089 515.56926 110.66045 516.12695 107.875 516.12695 C 105.2901 516.12695 103.25081 515.56926 101.75781 514.45508 C 100.64363 513.63058 99.963872 512.31474 99.71875 510.50977 L 93.869141 509.64062 C 93.780006 513.4734 95.0393 516.33831 97.646484 518.23242 C 100.25367 520.14881 103.67432 521.10547 107.9082 521.10547 C 111.47358 521.10547 114.47148 520.43858 116.90039 519.10156 C 119.35159 517.76454 121.13387 515.93664 122.24805 513.61914 C 123.38451 511.32393 123.95313 507.41305 123.95312 501.88672 L 123.95312 471.20312 L 118.4043 471.20312 L 118.4043 475.48047 C 115.68569 472.09336 112.23034 470.40039 108.04102 470.40039 z M 147.61719 470.40039 C 142.71479 470.40039 138.72553 472.04968 135.65039 475.34766 C 132.57525 478.64563 131.03906 483.27994 131.03906 489.25195 C 131.03906 495.02341 132.55341 499.51382 135.58398 502.72266 C 138.63684 505.90922 142.75909 507.50195 147.95117 507.50195 C 152.07365 507.50195 155.46153 506.49967 158.11328 504.49414 C 160.76503 502.48861 162.58007 499.66934 163.56055 496.03711 L 157.34375 495.26758 C 156.43012 497.80791 155.19462 499.65766 153.63477 500.81641 C 152.07491 501.97515 150.19046 502.55469 147.98438 502.55469 C 145.02066 502.55469 142.54769 501.51964 140.56445 499.44727 C 138.58121 497.37489 137.47869 494.38791 137.25586 490.48828 L 163.72852 490.48828 C 163.75078 489.77521 163.76172 489.24131 163.76172 488.88477 C 163.76172 483.02417 162.25829 478.47722 159.25 475.24609 C 156.24171 472.01497 152.36359 470.40039 147.61719 470.40039 z M 187.82812 470.40039 C 182.90345 470.40039 179.13843 472.35037 176.53125 476.25 L 176.53125 471.20312 L 171.11523 471.20312 L 171.11523 506.69922 L 177.13281 506.69922 L 177.13281 487.3125 C 177.13281 482.76664 178.0567 479.68139 179.90625 478.05469 C 181.77807 476.42798 183.99597 475.61523 186.55859 475.61523 C 188.16301 475.61523 189.55529 475.98144 190.73633 476.7168 C 191.93964 477.42987 192.77423 478.3994 193.24219 479.625 C 193.71014 480.82832 193.94531 482.65622 193.94531 485.10742 L 193.94531 506.69922 L 199.96094 506.69922 L 199.96094 484.87305 C 199.96094 482.08759 199.84979 480.13762 199.62695 479.02344 C 199.27042 477.3076 198.64721 475.82601 197.75586 474.57812 C 196.86451 473.33025 195.51591 472.32796 193.71094 471.57031 C 191.92825 470.79039 189.96736 470.40039 187.82812 470.40039 z M 223.52734 470.40039 C 220.47448 470.40039 217.64429 471.12383 215.03711 472.57227 C 212.45221 473.99841 210.52407 476.14884 209.25391 479.02344 C 207.98374 481.89802 207.34961 485.2512 207.34961 489.08398 C 207.34961 495.01143 208.82028 499.5693 211.76172 502.75586 C 214.72544 505.92013 218.63631 507.50195 223.49414 507.50195 C 227.37149 507.50195 230.63536 506.35381 233.28711 504.05859 C 235.96114 501.74109 237.62135 498.5447 238.26758 494.4668 L 232.35156 493.69727 C 231.92817 496.70556 230.92393 498.93438 229.3418 500.38281 C 227.75966 501.83125 225.78785 502.55469 223.42578 502.55469 C 220.48435 502.55469 218.1007 501.47401 216.27344 499.3125 C 214.44618 497.15099 213.5332 493.68666 213.5332 488.91797 C 213.5332 484.21612 214.47893 480.78456 216.37305 478.62305 C 218.26715 476.43925 220.72919 475.34766 223.75977 475.34766 C 225.76529 475.34766 227.47113 475.94903 228.875 477.15234 C 230.30115 478.35566 231.29252 480.14885 231.84961 482.5332 L 237.69922 481.63086 C 237.00843 478.04319 235.43753 475.28047 232.98633 473.3418 C 230.53513 471.38084 227.38241 470.40039 223.52734 470.40039 z M 240.00586 471.20312 L 253.47656 506.76758 C 253.23144 507.4138 253.05282 507.90403 252.94141 508.23828 C 252.09463 510.62263 251.48234 512.11514 251.10352 512.7168 C 250.59099 513.519 249.93307 514.14222 249.13086 514.58789 C 248.32865 515.03356 247.25889 515.25781 245.92188 515.25781 C 244.94139 515.25781 243.79325 515.0792 242.47852 514.72266 L 243.14648 520.37109 C 244.57264 520.86133 245.86664 521.10547 247.02539 521.10547 C 248.94178 521.10547 250.58912 520.63904 251.9707 519.70312 C 253.35229 518.7895 254.57882 517.34066 255.64844 515.35742 C 256.45064 513.8867 257.57695 511.20041 259.02539 507.30078 L 272.52734 471.20312 L 266.51172 471.20312 L 258.92383 491.89258 C 257.96563 494.52204 257.14197 497.21925 256.45117 499.98242 C 255.69353 497.10783 254.83515 494.36695 253.87695 491.75977 L 246.49023 471.20312 L 240.00586 471.20312 z M 147.68359 475.34766 C 150.73645 475.34766 153.22228 476.50477 155.13867 478.82227 C 156.38655 480.31527 157.14275 482.55501 157.41016 485.54102 L 137.58984 485.54102 C 137.7904 482.44359 138.82739 479.97063 140.69922 478.12109 C 142.59333 476.27155 144.92042 475.34766 147.68359 475.34766 z M 108.47656 475.38086 C 111.19517 475.38086 113.5133 476.48337 115.42969 478.68945 C 117.36837 480.89553 118.33594 484.17227 118.33594 488.51758 C 118.33594 493.06344 117.40112 496.4057 115.5293 498.54492 C 113.65747 500.66187 111.33934 501.71875 108.57617 501.71875 C 105.79072 501.71875 103.47454 500.65095 101.625 498.51172 C 99.775457 496.37249 98.849609 492.97368 98.849609 488.31641 C 98.849609 484.03795 99.78638 480.81776 101.6582 478.65625 C 103.53003 476.47245 105.80253 475.38086 108.47656 475.38086 z "
     d="m 50.181641,286.56055 v 28.31054 c 0,5.19208 0.625163,9.29249 1.873047,12.30079 1.247882,2.986 3.330844,5.26942 6.25,6.85156 2.919154,1.58214 6.673244,2.37304 11.263671,2.37304 4.724129,0 8.53477,-0.90205 11.431641,-2.70703 2.919155,-1.82726 4.9366,-4.18907 6.050781,-7.08593 1.114182,-2.89688 1.671875,-6.80775 1.671875,-11.73243 v -28.31054 h -6.486328 v 28.27734 c 0,6.15028 -1.013205,10.30724 -3.041016,12.46875 -2.027809,2.16151 -5.426616,3.24219 -10.195312,3.24219 -2.785453,0 -5.147262,-0.54677 -7.085938,-1.63867 -1.916392,-1.0919 -3.275914,-2.64096 -4.078124,-4.64649 -0.779928,-2.02781 -1.169922,-5.16961 -1.169922,-9.42578 v -28.27734 z m 49.068359,0 v 49.00195 h 6.48633 v -16.98047 l 8.02148,-7.82226 17.44727,24.80273 h 8.55664 l -21.45899,-29.14844 20.55665,-19.85351 h -8.79102 l -24.33203,24.30078 v -24.30078 z m 65.14648,0 v 49.00195 h 6.48438 v -23.09766 h 25.4707 v 23.09766 h 6.48438 v -49.00195 h -6.48438 v 20.12109 h -25.4707 v -20.12109 z m 124.47657,0 v 49.00195 h 6.01757 v -49.00195 z m 34.36133,0 v 49.00195 h 6.01757 v -19.41992 c 0,-2.78546 0.33344,-4.9706 1.00196,-6.55274 0.6685,-1.58214 1.78194,-2.83051 3.34179,-3.74414 1.58214,-0.93591 3.26614,-1.40234 5.04883,-1.40234 2.38435,0 4.22122,0.69068 5.51367,2.07226 1.31474,1.3593 1.97266,3.5425 1.97266,6.55079 v 22.49609 h 6.01758 v -22.49609 c 0,-3.47624 -0.42471,-6.12782 -1.27149,-7.95508 -0.82449,-1.82726 -2.20585,-3.25425 -4.14453,-4.2793 -1.93868,-1.04733 -4.22209,-1.57031 -6.85156,-1.57031 -4.27845,0 -7.82117,1.62745 -10.62891,4.88086 v -17.58203 z m -11.93165,1.10351 -5.98437,3.60938 v 8.79101 h -4.41211 v 4.67969 h 4.41211 v 20.42188 c 0,3.60994 0.24609,5.98267 0.73633,7.11914 0.49024,1.11418 1.33575,2.01819 2.53906,2.70898 1.20332,0.69079 2.89824,1.03516 5.08203,1.03516 1.33702,0 2.85137,-0.17862 4.54492,-0.53516 l -0.86914,-5.31445 c -1.0919,0.15598 -1.97212,0.23437 -2.64062,0.23437 -0.89135,0 -1.58203,-0.1439 -2.07227,-0.43359 -0.46795,-0.28969 -0.81231,-0.67968 -1.03515,-1.16992 -0.20056,-0.49024 -0.30079,-1.59471 -0.30079,-3.31055 v -20.75586 h 6.04883 v -4.67969 h -6.04883 z m -83.86523,11.59766 c -4.9024,0 -8.89166,1.64929 -11.9668,4.94726 -3.07514,3.29798 -4.61328,7.93229 -4.61328,13.9043 0,5.77145 1.5163,10.26186 4.54688,13.4707 3.05286,3.18656 7.1751,4.7793 12.36718,4.7793 4.12247,0 7.51036,-1.00229 10.16211,-3.00781 2.65176,-2.00553 4.46679,-4.8248 5.44727,-8.45703 l -6.2168,-0.76758 c -0.91362,2.54033 -2.15108,4.39007 -3.71094,5.54883 -1.55985,1.15874 -3.44235,1.73828 -5.64843,1.73828 -2.96372,0 -5.43668,-1.037 -7.41992,-3.10938 -1.98324,-2.07237 -3.08576,-5.05935 -3.3086,-8.95898 h 26.47266 c 0.0223,-0.71308 0.0332,-1.24698 0.0332,-1.60352 0,-5.8606 -1.50342,-10.40559 -4.51172,-13.63671 -3.00828,-3.23113 -6.8864,-4.84766 -11.63281,-4.84766 z m 38.50586,0 c -3.05285,0 -5.73719,0.42276 -8.05469,1.26953 -2.3175,0.8245 -4.08886,2.01827 -5.31445,3.57813 -1.2256,1.53756 -2.10582,3.56397 -2.64063,6.08203 l 5.88282,0.80273 c 0.64622,-2.51805 1.63759,-4.26757 2.97461,-5.24805 1.3593,-1.00276 3.45318,-1.5039 6.2832,-1.5039 3.03057,0 5.31399,0.67976 6.85156,2.03906 1.13647,1.00276 1.70508,2.73044 1.70508,5.18164 0,0.22284 -0.0109,0.74582 -0.0332,1.57031 -2.29522,0.80221 -5.87069,1.49289 -10.72852,2.07227 -2.38435,0.28969 -4.16858,0.59038 -5.34961,0.90234 -1.60442,0.44568 -3.0513,1.1036 -4.34375,1.97266 -1.27017,0.86907 -2.30717,2.02813 -3.10937,3.47656 -0.77993,1.42615 -1.16993,3.00797 -1.16993,4.74609 0,2.96373 1.04792,5.40392 3.14258,7.32032 2.09466,1.8941 5.0906,2.83984 8.99024,2.83984 2.36206,0 4.56904,-0.38999 6.61914,-1.16992 2.07237,-0.77993 4.2228,-2.11566 6.45117,-4.00977 0.17827,1.67128 0.57918,3.13103 1.20312,4.37891 h 6.28321 c -0.75765,-1.3593 -1.26971,-2.77537 -1.53711,-4.24609 -0.24512,-1.493 -0.36719,-5.03572 -0.36719,-10.62891 v -8.02148 c 0,-2.67404 -0.10023,-4.52379 -0.30078,-5.54883 -0.35654,-1.649 -0.9817,-3.00851 -1.87305,-4.07813 -0.89134,-1.09189 -2.28362,-1.99395 -4.17773,-2.70703 -1.89411,-0.71307 -4.35615,-1.07031 -7.38672,-1.07031 z m -38.43945,4.94726 c 3.05286,0 5.53868,1.15907 7.45507,3.47657 1.24788,1.493 2.00408,3.73274 2.27149,6.71875 h -19.82031 c 0.20055,-3.09742 1.23559,-5.57233 3.10742,-7.42188 1.8941,-1.84954 4.22316,-2.77344 6.98633,-2.77344 z m 46.09375,13.53711 v 2.20508 c 0,2.65176 -0.32253,4.65828 -0.96875,6.01758 -0.84678,1.76041 -2.17355,3.15269 -3.97852,4.17773 -1.80497,1.00277 -3.8661,1.50391 -6.18359,1.50391 -2.33979,0 -4.12207,-0.5339 -5.34766,-1.60351 -1.20332,-1.06962 -1.80469,-2.4073 -1.80469,-4.01172 0,-1.04733 0.27885,-1.99307 0.83594,-2.83985 0.55709,-0.86906 1.348,-1.52698 2.37305,-1.97265 1.02504,-0.44568 2.77456,-0.8466 5.24804,-1.20313 4.36759,-0.62395 7.64238,-1.3821 9.82618,-2.27344 z M 66.996094,371.29297 c -3.297977,0 -6.295869,0.55769 -8.992188,1.67187 -2.696318,1.11418 -4.746522,2.75255 -6.15039,4.91407 -1.403869,2.13922 -2.105469,4.44449 -2.105469,6.91797 0,2.25064 0.568613,4.28992 1.705078,6.11718 1.158748,1.80498 2.908266,3.32128 5.248047,4.54688 1.804973,0.95819 4.957692,1.98232 9.458984,3.07422 4.501293,1.06961 7.407923,1.86052 8.722656,2.37304 2.050095,0.77993 3.520765,1.74946 4.41211,2.90821 0.891345,1.13646 1.33789,2.47415 1.33789,4.01171 0,1.51529 -0.468384,2.91849 -1.404296,4.21094 -0.913629,1.27017 -2.316829,2.27246 -4.210938,3.00782 -1.894108,0.73535 -4.077298,1.10351 -6.550781,1.10351 -2.785453,0 -5.293122,-0.4793 -7.521485,-1.4375 -2.228362,-0.98048 -3.877651,-2.25069 -4.947265,-3.81055 -1.04733,-1.58213 -1.716172,-3.59762 -2.005859,-6.04882 l -6.117188,0.5332 c 0.08913,3.27569 0.982225,6.21703 2.675781,8.82422 1.71584,2.5849 4.066729,4.52395 7.052735,5.8164 3.00829,1.29245 6.729621,1.93946 11.164062,1.93946 3.498529,0 6.640328,-0.63609 9.425781,-1.90625 2.807737,-1.29245 4.958169,-3.08565 6.451172,-5.38086 1.493003,-2.3175 2.238282,-4.77953 2.238281,-7.38672 0,-2.62947 -0.679761,-4.9476 -2.039062,-6.95313 -1.359301,-2.0278 -3.464102,-3.69893 -6.316406,-5.01367 -1.960959,-0.89134 -5.582062,-1.92639 -10.863282,-3.10742 -5.258935,-1.20331 -8.511882,-2.3733 -9.759765,-3.50977 -1.270167,-1.13646 -1.90625,-2.58529 -1.90625,-4.3457 0,-2.02781 0.891138,-3.75549 2.673828,-5.18164 1.804974,-1.44843 4.667926,-2.17187 8.589844,-2.17187 3.765933,0 6.608999,0.79091 8.52539,2.37304 1.938676,1.58214 3.073949,3.92211 3.408203,7.01953 l 6.216797,-0.46875 c -0.111418,-2.87458 -0.913246,-5.44777 -2.40625,-7.7207 -1.493002,-2.27293 -3.632515,-3.98969 -6.417968,-5.14844 -2.76317,-1.18103 -5.959567,-1.77148 -9.591797,-1.77148 z m 161.175786,0.83594 v 6.91992 h 6.01757 v -6.91992 z m 22.26171,1.10351 -5.98242,3.60938 v 8.79101 h -4.41211 v 4.67969 h 4.41211 v 20.42383 c 0,3.60994 0.24414,5.98268 0.73438,7.11914 0.49024,1.11419 1.33769,2.01624 2.54101,2.70703 1.20332,0.69079 2.89629,1.03711 5.08008,1.03711 1.33702,0 2.85332,-0.17862 4.54688,-0.53516 L 256.48438,415.75 c -1.0919,0.15599 -1.97212,0.23438 -2.64063,0.23438 -0.89135,0 -1.58203,-0.14587 -2.07227,-0.43555 -0.46795,-0.28969 -0.81427,-0.67968 -1.0371,-1.16992 -0.20056,-0.49024 -0.30079,-1.59276 -0.30079,-3.3086 V 390.3125 h 6.05079 v -4.67969 h -6.05079 z m -140.88867,11.59766 c -4.9024,0 -8.8897,1.64929 -11.964842,4.94726 -3.075141,3.29798 -4.613281,7.93424 -4.613281,13.90625 0,5.77146 1.516302,10.25991 4.546875,13.46875 3.052858,3.18656 7.175098,4.78125 12.367188,4.78125 4.12247,0 7.50841,-1.00228 10.16016,-3.00781 2.65175,-2.00553 4.46873,-4.8248 5.44921,-8.45703 l -6.21679,-0.76953 c -0.91363,2.54033 -2.15109,4.39008 -3.71094,5.54883 -1.55986,1.15874 -3.44236,1.73828 -5.64844,1.73828 -2.96372,0 -5.43863,-1.037 -7.42187,-3.10938 -1.98325,-2.07238 -3.08576,-5.05739 -3.308596,-8.95703 h 26.472656 c 0.0223,-0.71308 0.0332,-1.24893 0.0332,-1.60547 0,-5.86059 -1.50343,-10.40559 -4.51172,-13.63672 -3.00829,-3.23112 -6.8864,-4.84765 -11.63281,-4.84765 z m 37.83789,0 c -3.05286,0 -5.88305,0.72539 -8.49023,2.17383 -2.58491,1.42615 -4.51109,3.57658 -5.78125,6.45117 -1.27017,2.87458 -1.90625,6.22776 -1.90625,10.06054 0,5.92745 1.47067,10.48533 4.41211,13.67188 2.96372,3.16428 6.87459,4.74609 11.73242,4.74609 3.87735,0 7.14317,-1.14814 9.79492,-3.44336 2.67403,-2.3175 4.33424,-5.51585 4.98047,-9.59375 l -5.91797,-0.76757 c -0.42339,3.00829 -1.42567,5.23711 -3.00781,6.68554 -1.58213,1.44844 -3.55395,2.17188 -5.91602,2.17188 -2.94144,0 -5.32509,-1.08068 -7.15234,-3.24219 -1.82726,-2.16151 -2.74219,-5.62778 -2.74219,-10.39648 0,-4.70184 0.94769,-8.13341 2.8418,-10.29493 1.89411,-2.1838 4.35614,-3.27539 7.38672,-3.27539 2.00552,0 3.71136,0.60137 5.11523,1.80469 1.42616,1.20331 2.41752,2.99847 2.97461,5.38281 l 5.84961,-0.90234 c -0.69079,-3.58767 -2.2617,-6.35234 -4.71289,-8.29102 -2.4512,-1.96096 -5.60587,-2.9414 -9.46094,-2.9414 z m 70.9961,0 c -1.40387,0 -2.69592,0.40286 -3.87696,1.20508 -1.15874,0.8022 -2.42896,2.46046 -3.81054,4.97851 v -5.38086 h -5.41602 v 35.49805 h 6.01758 v -18.58398 c 0,-2.54034 0.33345,-4.88031 1.00195,-7.01954 0.44568,-1.40386 1.19291,-2.49546 2.24024,-3.27539 1.04733,-0.80221 2.22823,-1.20312 3.54296,-1.20312 1.47073,0 2.94139,0.43367 4.41211,1.30273 l 2.07227,-5.58203 c -2.09467,-1.29245 -4.15579,-1.93945 -6.18359,-1.93945 z m -51.24024,0.80273 v 21.99414 c 0,2.56262 0.12207,4.4342 0.36719,5.61524 0.35653,1.7604 0.96882,3.25291 1.83789,4.47851 0.89134,1.20332 2.23995,2.20756 4.04492,3.00977 1.82726,0.80221 3.78815,1.20312 5.88281,1.20312 4.74642,0 8.5005,-2.00652 11.26368,-6.01757 v 5.21484 h 5.38281 v -35.49805 h -6.01758 v 19.01953 c 0,3.03057 -0.33345,5.3487 -1.00195,6.95313 -0.64623,1.58213 -1.76161,2.83948 -3.34375,3.77539 -1.58214,0.91363 -3.27511,1.37109 -5.08008,1.37109 -1.80497,0 -3.31932,-0.44459 -4.54492,-1.33593 -1.2256,-0.91364 -2.02939,-2.16201 -2.40821,-3.74414 -0.24512,-1.0919 -0.36718,-3.20957 -0.36718,-6.35157 v -19.6875 z m 61.03321,0 v 35.49805 h 6.01757 v -35.49805 z m 30.78515,0 13.4707,35.56446 c -0.24512,0.64622 -0.42373,1.13645 -0.53515,1.4707 -0.84678,2.38435 -1.45907,3.87881 -1.83789,4.48047 -0.51252,0.8022 -1.17045,1.42542 -1.97266,1.87109 -0.80221,0.44567 -1.87196,0.66797 -3.20898,0.66797 -0.98048,0 -2.12668,-0.17862 -3.44141,-0.53516 l 0.66797,5.65039 c 1.42615,0.49024 2.71821,0.73438 3.87695,0.73438 1.9164,0 3.56569,-0.46838 4.94727,-1.4043 1.38158,-0.91362 2.60812,-2.36051 3.67773,-4.34375 0.80222,-1.47072 1.92657,-4.157 3.375,-8.05664 l 13.50391,-36.09961 h -6.01563 l -7.58789,20.69141 c -0.9582,2.62947 -1.78381,5.32472 -2.47461,8.08789 -0.75764,-2.87459 -1.61406,-5.61548 -2.57226,-8.22266 l -7.38867,-20.55664 z m -149.34375,4.14453 c 3.05285,0 5.53673,1.15907 7.45313,3.47657 1.24788,1.493 2.00603,3.73274 2.27343,6.71875 H 99.517578 c 0.200553,-3.09742 1.237552,-5.57039 3.109372,-7.41993 1.89411,-1.84954 4.22316,-2.77539 6.98633,-2.77539 z m -46.093749,67.92188 -18.818359,49 h 6.884766 l 5.380859,-14.83984 h 20.490234 l 5.716797,14.83984 h 7.386719 l -20.054688,-49 z m 3.341797,5.14648 c 0.757643,2.65176 1.916709,6.03964 3.476563,10.16211 l 5.113281,13.57031 H 58.839844 l 5.380859,-14.37304 c 1.136465,-3.09743 2.016684,-6.21738 2.640625,-9.35938 z m 41.179692,7.55469 c -3.142,0 -5.88288,0.77999 -8.222661,2.33984 -2.317496,1.55986 -4.088853,3.7758 -5.314453,6.65039 -1.2256,2.8523 -1.83789,5.97227 -1.83789,9.35938 0,4.92468 1.337683,9.14716 4.011718,12.66797 2.674032,3.52081 6.449956,5.28125 11.330076,5.28125 3.92192,0 7.19865,-1.54711 9.82813,-4.64453 0.0223,3.92192 -0.12358,6.4951 -0.43555,7.7207 -0.53481,2.00553 -1.55893,3.56551 -3.07422,4.67969 -1.51528,1.11418 -3.66572,1.67187 -6.45117,1.67187 -2.5849,0 -4.62419,-0.55769 -6.11719,-1.67187 -1.11418,-0.8245 -1.793938,-2.14034 -2.03906,-3.94531 l -5.849609,-0.86915 c -0.08913,3.83278 1.170159,6.69769 3.777343,8.5918 2.607186,1.91639 6.027836,2.87305 10.261716,2.87305 3.56538,0 6.56328,-0.66689 8.99219,-2.00391 2.4512,-1.33702 4.23348,-3.16492 5.34766,-5.48242 1.13646,-2.29521 1.70508,-6.20609 1.70507,-11.73242 v -30.6836 h -5.54882 v 4.27735 c -2.71861,-3.38711 -6.17396,-5.08008 -10.36328,-5.08008 z m 39.57617,0 c -4.9024,0 -8.89166,1.64929 -11.9668,4.94727 -3.07514,3.29797 -4.61133,7.93228 -4.61133,13.90429 0,5.77146 1.51435,10.26187 4.54492,13.47071 3.05286,3.18656 7.17511,4.77929 12.36719,4.77929 4.12248,0 7.51036,-1.00228 10.16211,-3.00781 2.65175,-2.00553 4.46679,-4.8248 5.44727,-8.45703 l -6.2168,-0.76953 c -0.91363,2.54033 -2.14913,4.39008 -3.70898,5.54883 -1.55986,1.15874 -3.44431,1.73828 -5.65039,1.73828 -2.96372,0 -5.43669,-1.03505 -7.41993,-3.10742 -1.98324,-2.07238 -3.08576,-5.05936 -3.30859,-8.95899 h 26.47266 c 0.0223,-0.71307 0.0332,-1.24697 0.0332,-1.60351 0,-5.8606 -1.50343,-10.40755 -4.51172,-13.63868 -3.00829,-3.23112 -6.88641,-4.8457 -11.63281,-4.8457 z m 40.21093,0 c -4.92467,0 -8.68969,1.94998 -11.29687,5.84961 v -5.04688 h -5.41602 v 35.4961 h 6.01758 V 487.3125 c 0,-4.54586 0.92389,-7.63111 2.77344,-9.25781 1.87182,-1.62671 4.08972,-2.43946 6.65234,-2.43946 1.60442,0 2.9967,0.36621 4.17774,1.10157 1.20331,0.71307 2.0379,1.6826 2.50586,2.9082 0.46795,1.20332 0.70312,3.03122 0.70312,5.48242 v 21.5918 h 6.01563 v -21.82617 c 0,-2.78546 -0.11115,-4.73543 -0.33399,-5.84961 -0.35653,-1.71584 -0.97974,-3.19743 -1.87109,-4.44532 -0.89135,-1.24787 -2.23995,-2.25016 -4.04492,-3.00781 -1.78269,-0.77992 -3.74358,-1.16992 -5.88282,-1.16992 z m 35.69922,0 c -3.05286,0 -5.88305,0.72344 -8.49023,2.17188 -2.5849,1.42614 -4.51304,3.57657 -5.7832,6.45117 -1.27017,2.87458 -1.9043,6.22776 -1.9043,10.06054 0,5.92745 1.47067,10.48532 4.41211,13.67188 2.96372,3.16427 6.87459,4.74609 11.73242,4.74609 3.87735,0 7.14122,-1.14814 9.79297,-3.44336 2.67403,-2.3175 4.33424,-5.51389 4.98047,-9.59179 l -5.91602,-0.76953 c -0.42339,3.00829 -1.42763,5.23711 -3.00976,6.68554 -1.58214,1.44844 -3.55395,2.17188 -5.91602,2.17188 -2.94143,0 -5.32508,-1.08068 -7.15234,-3.24219 -1.82726,-2.16151 -2.74024,-5.62584 -2.74024,-10.39453 0,-4.70185 0.94573,-8.13341 2.83985,-10.29492 1.8941,-2.1838 4.35614,-3.27539 7.38672,-3.27539 2.00552,0 3.71136,0.60137 5.11523,1.80468 1.42615,1.20332 2.41752,2.99651 2.97461,5.38086 l 5.84961,-0.90234 c -0.69079,-3.58767 -2.26169,-6.35039 -4.71289,-8.28906 -2.4512,-1.96096 -5.60392,-2.94141 -9.45899,-2.94141 z m 16.47852,0.80273 13.4707,35.56446 c -0.24512,0.64622 -0.42374,1.13645 -0.53515,1.4707 -0.84678,2.38435 -1.45907,3.87686 -1.83789,4.47852 -0.51253,0.8022 -1.17045,1.42542 -1.97266,1.87109 -0.80221,0.44567 -1.87197,0.66992 -3.20898,0.66992 -0.98049,0 -2.12863,-0.17861 -3.44336,-0.53515 l 0.66796,5.64843 c 1.42616,0.49024 2.72016,0.73438 3.87891,0.73438 1.91639,0 3.56373,-0.46643 4.94531,-1.40235 1.38159,-0.91362 2.60812,-2.36246 3.67774,-4.3457 0.8022,-1.47072 1.92851,-4.15701 3.37695,-8.05664 l 13.50195,-36.09766 h -6.01562 l -7.58789,20.68946 c -0.9582,2.62946 -1.78186,5.32667 -2.47266,8.08984 -0.75764,-2.87459 -1.61602,-5.61547 -2.57422,-8.22265 l -7.38672,-20.55665 z m -92.32227,4.14454 c 3.05286,0 5.53869,1.15711 7.45508,3.47461 1.24788,1.493 2.00408,3.73274 2.27149,6.71875 h -19.82032 c 0.20056,-3.09743 1.23755,-5.57039 3.10938,-7.41993 1.89411,-1.84954 4.2212,-2.77343 6.98437,-2.77343 z m -39.20703,0.0332 c 2.71861,0 5.03674,1.10251 6.95313,3.30859 1.93868,2.20608 2.90625,5.48282 2.90625,9.82813 0,4.54586 -0.93482,7.88812 -2.80664,10.02734 -1.87183,2.11695 -4.18996,3.17383 -6.95313,3.17383 -2.78545,0 -5.10163,-1.0678 -6.95117,-3.20703 -1.849543,-2.13923 -2.775391,-5.53804 -2.775391,-10.19531 0,-4.27846 0.936771,-7.49865 2.808591,-9.66016 1.87183,-2.1838 4.14433,-3.27539 6.81836,-3.27539 z" /></g><text
   xml:space="preserve"
   id="text1169"
   style="font-size:59.0427px;line-height:1.25;font-family:'Segoe UI';-inkscape-font-specification:'Segoe UI, Normal';white-space:pre;shape-inside:url(#rect1171);"
   transform="translate(-4.7683715e-8,0.85283051)" /></svg>
