<?xml version="1.0" encoding="iso-8859-1"?>
<!-- Generator: Adobe Illustrator 19.0.0, SVG Export Plug-In . SVG Version: 6.00 Build 0)  -->
<svg version="1.1" id="Layer_1" xmlns="http://www.w3.org/2000/svg" xmlns:xlink="http://www.w3.org/1999/xlink" x="0px" y="0px"
	 viewBox="0 0 455.686 455.686" style="enable-background:new 0 0 455.686 455.686;" xml:space="preserve">
<g>
	<g>
		<g>
			<path d="M317.733,10.19l-92.315,66.352H97.447c-15.809,0-29.051,10.957-32.569,25.689C28.428,106.023,0,136.804,0,174.258
				s28.428,68.235,64.878,72.028c2.137,8.949,7.86,16.501,15.572,21.053c-0.548,57.731,1.988,120.227,45.501,173.06
				c13.508,16.4,38.679,16.272,52.062-0.231l7.96-9.816c9.912-12.223,10.066-29.725,0.257-42.031
				c-13.311-16.7-20.017-35.501-23.283-58.164h3.112c16.661,0,30.168-13.507,30.168-30.168v-28.016h29.19l92.315,66.351
				c24.847,17.859,59.479,0.102,59.479-30.498V40.688C377.211,10.089,342.58-7.669,317.733,10.19z"/>
			<path d="M407.211,119.047v110.422c27.347-3.531,48.475-26.903,48.475-55.211S434.558,122.578,407.211,119.047z"/>
		</g>
	</g>
</g>
<g>
</g>
<g>
</g>
<g>
</g>
<g>
</g>
<g>
</g>
<g>
</g>
<g>
</g>
<g>
</g>
<g>
</g>
<g>
</g>
<g>
</g>
<g>
</g>
<g>
</g>
<g>
</g>
<g>
</g>
</svg>
