<?xml version="1.0" encoding="utf-8"?>
<!-- Generator: Adobe Illustrator 21.0.0, SVG Export Plug-In . SVG Version: 6.00 Build 0)  -->
<svg version="1.1"
	 id="svg4694" xmlns:cc="http://creativecommons.org/ns#" xmlns:dc="http://purl.org/dc/elements/1.1/" xmlns:rdf="http://www.w3.org/1999/02/22-rdf-syntax-ns#"
	 xmlns="http://www.w3.org/2000/svg" xmlns:xlink="http://www.w3.org/1999/xlink" x="0px" y="0px" viewBox="0 0 157 91.3"
	 style="enable-background:new 0 0 157 91.3;" xml:space="preserve" height="32.21500015258789mm" width="55.38610076904297mm">
<style type="text/css">
	.st0{fill:none;}
	.st1{fill:#337AB7;}
	.st2{fill:#FFA000;}
	.st3{fill:#FFCA28;}
	.st4{font-family:'ArialMT';}
	.st5{font-size:9px;}
</style>
<rect id="svgEditorBackground" x="0" y="0" class="st0" width="157" height="91.3"/>
<g id="layer1" transform="translate(-73.303557,-889.57408)">
	<path id="rect4188-1" class="st1" d="M150.2,913.7v20.8h-16h-22.7H90.8h-1.1c-1,0-1.9,0.8-1.9,1.9v1.1v20.8c0,1,0.8,1.9,1.9,1.9
		h1.1c1,0,1.9-0.8,1.9-1.9v-18.9h18.9h17.9v20.8h4.8v-20.8h16h4.8h16v20.8h4.8v-20.8h20.8h16v18.9c0,1,0.8,1.9,1.9,1.9h1.1
		c1,0,1.9-0.8,1.9-1.9v-20.8v-1.1c0-1-0.8-1.9-1.9-1.9h-18.9h-20.8H155v-20.8H150.2L150.2,913.7z"/>
	<g id="g4148" transform="translate(148.46582,881.57408)">
		<path id="path4138" class="st2" d="M17,11.2H2.6L-0.6,8h-8c-1.8,0-3.2,1.4-3.2,3.2v6.4h32v-3.2C20.2,12.6,18.7,11.2,17,11.2z"/>
		<path id="path4140" class="st3" d="M17,11.2H-8.6c-1.8,0-3.2,1.4-3.2,3.2v16c0,1.8,1.4,3.2,3.2,3.2H17c1.8,0,3.2-1.4,3.2-3.2v-16
			C20.2,12.6,18.7,11.2,17,11.2z"/>
	</g>
	<g id="g4148-4-1" transform="translate(173.47025,963.72175)">
		<path id="path4138-2-8" class="st2" d="M12-5.2H-2.4l-3.2-3.2h-8c-1.8,0-3.2,1.4-3.2,3.2v6.4h32V-2C15.2-3.8,13.7-5.2,12-5.2z"/>
		<path id="path4140-6-7" class="st3" d="M12-5.2h-25.6c-1.8,0-3.2,1.4-3.2,3.2v16c0,1.8,1.4,3.2,3.2,3.2H12c1.8,0,3.2-1.4,3.2-3.2
			V-2C15.2-3.8,13.7-5.2,12-5.2z"/>
	</g>
	<g id="g4148-4-0" transform="translate(121.3869,963.72175)">
		<path id="path4138-2-0" class="st2" d="M22.4-5.2H8L4.8-8.4h-8C-5-8.4-6.4-7-6.4-5.2v6.4h32V-2C25.6-3.8,24.1-5.2,22.4-5.2z"/>
		<path id="path4140-6-8" class="st3" d="M22.4-5.2H-3.2C-5-5.2-6.4-3.8-6.4-2v16c0,1.8,1.4,3.2,3.2,3.2h25.6c1.8,0,3.2-1.4,3.2-3.2
			V-2C25.6-3.8,24.1-5.2,22.4-5.2z"/>
	</g>
	<text transform="matrix(1 0 0 1 159.0047 972.6121)" class="st4 st5">home</text>
	<g id="g4148-4-1-6" transform="translate(69.303557,963.72175)">
		<path id="path4138-2-8-2" class="st2" d="M32.8-5.2H18.4l-3.2-3.2h-8C5.4-8.4,4-7,4-5.2v6.4h32V-2C36-3.8,34.6-5.2,32.8-5.2z"/>
		<path id="path4140-6-7-6" class="st3" d="M32.8-5.2H7.2C5.4-5.2,4-3.8,4-2v16c0,1.8,1.4,3.2,3.2,3.2h25.6c1.8,0,3.2-1.4,3.2-3.2
			V-2C36-3.8,34.6-5.2,32.8-5.2z"/>
	</g>
	<g id="g4148-4-1-3" transform="translate(225.55359,963.72175)">
		<path id="path4138-2-8-3" class="st2" d="M1.5-5.2h-14.4l-3.2-3.2h-8c-1.8,0-3.2,1.4-3.2,3.2v6.4h32V-2C4.7-3.8,3.3-5.2,1.5-5.2z"
			/>
		<path id="path4140-6-7-2" class="st3" d="M1.5-5.2h-25.6c-1.8,0-3.2,1.4-3.2,3.2v16c0,1.8,1.4,3.2,3.2,3.2H1.5
			c1.8,0,3.2-1.4,3.2-3.2V-2C4.7-3.8,3.3-5.2,1.5-5.2z"/>
	</g>
	<text transform="matrix(1 0 0 1 120.0672 972.6121)" class="st4 st5">usr</text>
	<text transform="matrix(1 0 0 1 81.0946 972.7747)" class="st4 st5">bin</text>
	<text transform="matrix(1 0 0 1 206.1073 971.6541)" class="st4 st5">tmp</text>
	<text transform="matrix(1 0 0 1 151.3343 906.5061)" class="st4 st5">/</text>
</g>
</svg>
