<?xml version="1.0" encoding="utf-8"?>
<!-- Generator: Adobe Illustrator 21.0.0, SVG Export Plug-In . SVG Version: 6.00 Build 0)  -->
<svg version="1.1"
	 id="svg5258" xmlns:cc="http://creativecommons.org/ns#" xmlns:dc="http://purl.org/dc/elements/1.1/" xmlns:rdf="http://www.w3.org/1999/02/22-rdf-syntax-ns#"
	 xmlns="http://www.w3.org/2000/svg" xmlns:xlink="http://www.w3.org/1999/xlink" x="0px" y="0px" viewBox="0 0 157 154.3" height="54.41809844970703mm" width="55.38610076904297mm"
	 style="enable-background:new 0 0 157 154.3;" xml:space="preserve">
<style type="text/css">
	.st0{fill:none;}
	.st1{fill:#C0C0C0;}
	.st2{fill:#E6E6E6;}
	.st3{fill:#337AB7;}
	.st4{fill:#FFA000;}
	.st5{fill:#FFCA28;}
	.st6{font-family:'ArialMT';}
	.st7{font-size:9px;}
	.st8{fill:#999999;}
	.st9{font-size:7.2px;}
</style>
<rect id="svgEditorBackground" y="0" class="st0" width="164.5" height="154.3"/>
<path id="rect4188-1-4" class="st1" d="M76.9,24.2V45h-16H38.3H17.5h-1.1c-1,0-1.9,0.8-1.9,1.9v1.1v20.8c0,1,0.8,1.9,1.9,1.9h1.1
	c1,0,1.9-0.8,1.9-1.9V49.8h18.9h17.9v20.8h4.8V49.8h16h4.8h16v20.8h4.8V49.8h20.8h16v18.9c0,1,0.8,1.9,1.9,1.9h1.1
	c1,0,1.9-0.8,1.9-1.9V47.9v-1.1c0-1-0.8-1.9-1.9-1.9h-18.9h-20.8H81.7V24.2H76.9z"/>
<path id="path4138-8" class="st1" d="M92.1,3.2H77.7L74.5,0h-8c-1.8,0-3.2,1.4-3.2,3.2v6.4h32V6.4C95.3,4.6,93.9,3.2,92.1,3.2z"/>
<path id="path4140-5" class="st2" d="M92.1,3.2H66.5c-1.8,0-3.2,1.4-3.2,3.2v16c0,1.8,1.4,3.2,3.2,3.2h25.6c1.8,0,3.2-1.4,3.2-3.2
	v-16C95.3,4.6,93.9,3.2,92.1,3.2z"/>
<path id="rect4188-1-9-4-6-2" class="st3" d="M97.4,89.3v18.6H79.6H57.7c-1,0-1.9,0.8-1.9,1.9v1.1v20.8c0,1,0.8,1.9,1.9,1.9h1.1
	c1,0,1.9-0.8,1.9-1.9v-18.9h18.9h17.9v2.2v18.6h4.8v-18.6v-2.2H123h16v18.9c0,1,0.8,1.9,1.9,1.9h1.1c1,0,1.9-0.8,1.9-1.9v-20.8v-1.1
	c0-1-0.8-1.9-1.9-1.9H123h-20.8V89.3H97.4z"/>
<g id="g4148-4-1-8" transform="translate(364.89882,495.81407)">
	<path id="path4138-2-8-5" class="st4" d="M-252.8-426.9h-14.4l-3.2-3.2h-8c-1.8,0-3.2,1.4-3.2,3.2v6.4h32v-3.2
		C-249.6-425.5-251-426.9-252.8-426.9z"/>
	<path id="path4140-6-7-5" class="st5" d="M-252.8-426.9h-25.6c-1.8,0-3.2,1.4-3.2,3.2v16c0,1.8,1.4,3.2,3.2,3.2h25.6
		c1.8,0,3.2-1.4,3.2-3.2v-16C-249.6-425.5-251-426.9-252.8-426.9z"/>
</g>
<path id="path4138-2-0-1" class="st1" d="M70.5,68.9H56.1l-3.2-3.2h-8c-1.8,0-3.2,1.4-3.2,3.2v6.4h32v-3.2
	C73.7,70.4,72.2,68.9,70.5,68.9L70.5,68.9z"/>
<path id="path4140-6-8-8" class="st2" d="M70.5,68.9H44.9c-1.8,0-3.2,1.4-3.2,3.2v16c0,1.8,1.4,3.2,3.2,3.2h25.6
	c1.8,0,3.2-1.4,3.2-3.2v-16C73.7,70.4,72.2,68.9,70.5,68.9L70.5,68.9z"/>
<text transform="matrix(1 0 0 1 86.3628 82.4735)" class="st6 st7">home</text>
<path id="path4138-2-8-2-0" class="st1" d="M28.8,68.9H14.4l-3.2-3.2h-8c-1.8,0-3.2,1.4-3.2,3.2v6.4h32v-3.2
	C32,70.4,30.6,68.9,28.8,68.9L28.8,68.9z"/>
<path id="path4140-6-7-6-5" class="st2" d="M28.8,68.9H3.2c-1.8,0-3.2,1.4-3.2,3.2v16c0,1.8,1.4,3.2,3.2,3.2h25.6
	c1.8,0,3.2-1.4,3.2-3.2v-16C32,70.4,30.6,68.9,28.8,68.9L28.8,68.9z"/>
<path id="path4138-2-8-3-7" class="st1" d="M153.8,68.9h-14.4l-3.2-3.2h-8c-1.8,0-3.2,1.4-3.2,3.2v6.4h32v-3.2
	C157,70.4,155.6,68.9,153.8,68.9L153.8,68.9z"/>
<path id="path4140-6-7-2-6" class="st2" d="M153.8,68.9h-25.6c-1.8,0-3.2,1.4-3.2,3.2v16c0,1.8,1.4,3.2,3.2,3.2h25.6
	c1.8,0,3.2-1.4,3.2-3.2v-16C157,70.4,155.6,68.9,153.8,68.9L153.8,68.9z"/>
<text transform="matrix(1 0 0 1 46.9043 82.4735)" class="st8 st6 st7">usr</text>
<text transform="matrix(1 0 0 1 8.5156 82.5443)" class="st8 st6 st7">bin</text>
<text transform="matrix(1 0 0 1 133.7583 82.5091)" class="st8 st6 st7">tmp</text>
<text transform="matrix(1 0 0 1 77.3306 17.558)" class="st8 st6 st7">/</text>
<g id="g4148-4-1-67" transform="translate(364.54522,574.48658)">
	<path id="path4138-2-8-0" class="st4" d="M-252.7-442.6h-14.4l-3.2-3.2h-8c-1.8,0-3.2,1.4-3.2,3.2v6.4h32v-3.2
		C-249.5-441.2-250.9-442.6-252.7-442.6z"/>
	<path id="path4140-6-7-7" class="st5" d="M-252.7-442.6h-25.6c-1.8,0-3.2,1.4-3.2,3.2v16c0,1.8,1.4,3.2,3.2,3.2h25.6
		c1.8,0,3.2-1.4,3.2-3.2v-16C-249.5-441.2-250.9-442.6-252.7-442.6z"/>
</g>
<g id="g4148-4-0-2" transform="translate(312.46187,574.48658)">
	<path id="path4138-2-0-0" class="st4" d="M-242.3-442.6h-14.4l-3.2-3.2h-8c-1.8,0-3.2,1.4-3.2,3.2v6.4h32v-3.2
		C-239.1-441.2-240.5-442.6-242.3-442.6z"/>
	<path id="path4140-6-8-6" class="st5" d="M-242.3-442.6h-25.6c-1.8,0-3.2,1.4-3.2,3.2v16c0,1.8,1.4,3.2,3.2,3.2h25.6
		c1.8,0,3.2-1.4,3.2-3.2v-16C-239.1-441.2-240.5-442.6-242.3-442.6z"/>
</g>
<text transform="matrix(1 0 0 1 91.9111 144.7113)" class="st6 st9">larry</text>
<g id="g4148-4-1-3-2" transform="translate(416.62856,574.48658)">
	<path id="path4138-2-8-3-4" class="st4" d="M-262.9-442.6h-14.5l-3.2-3.2h-8.1c-1.8,0-3.2,1.4-3.2,3.2v6.4h32.3v-3.2
		C-259.6-441.2-261.1-442.6-262.9-442.6z"/>
	<path id="path4140-6-7-2-7" class="st5" d="M-262.9-442.6h-25.8c-1.8,0-3.2,1.4-3.2,3.2v16c0,1.8,1.5,3.2,3.2,3.2h25.8
		c1.8,0,3.2-1.4,3.2-3.2v-16C-259.6-441.2-261.1-442.6-262.9-442.6z"/>
</g>
<text transform="matrix(1 0 0 1 44.3335 144.6117)" class="st6 st9">imhotep</text>
<text transform="matrix(0.8278 0 0 1 127.5 144.7113)" class="st6 st9">participant</text>
</svg>
